<svg xmlns="http://www.w3.org/2000/svg" xmlns:xlink="http://www.w3.org/1999/xlink" width="128" height="128" viewBox="0 0 128 128">
  <defs>
    <clipPath id="clip-path">
      <rect id="Rectángulo_461165" data-name="Rectángulo 461165" width="61.333" height="65.771" fill="#19538d"/>
    </clipPath>
  </defs>
  <g id="Grupo_1211990" data-name="Grupo 1211990" transform="translate(-383.746 -8400)">
    <circle id="Elipse_13890" data-name="Elipse 13890" cx="64" cy="64" r="64" transform="translate(383.746 8400)" fill="#5a9ad7"/>
    <path id="Intersección_1" data-name="Intersección 1" d="M23204.689,11774.869a64,64,0,0,1,106.254-48.067l-104.787,61.753A64.213,64.213,0,0,1,23204.689,11774.869Z" transform="translate(-22820.941 -3310.872)" fill="#19538d"/>
    <circle id="Elipse_13891" data-name="Elipse 13891" cx="54" cy="54" r="54" transform="translate(393.746 8410)" fill="#fff"/>
    <g id="Grupo_1211989" data-name="Grupo 1211989" transform="translate(413.491 8430.07)">
      <g id="Grupo_1099618" data-name="Grupo 1099618" transform="translate(0.255 -0.07)">
        <rect id="Rectángulo_401104" data-name="Rectángulo 401104" width="68.18" height="69.001" transform="translate(0)" fill="none"/>
      </g>
      <g id="Grupo_1211824" data-name="Grupo 1211824" transform="translate(3.255 1.93)">
        <g id="Grupo_1211823" data-name="Grupo 1211823" clip-path="url(#clip-path)">
          <path id="Trazado_1275360" data-name="Trazado 1275360" d="M74.141,121.273a1.088,1.088,0,1,1-2.171.156l-.052-2.274A20.863,20.863,0,0,1,52.255,99.5l-2.119,0a1.314,1.314,0,0,1-1.168-.9c-.1-.486.26-1.284.74-1.289l2.537-.025A20.835,20.835,0,0,1,71.911,77.55l.058-2.367A1.245,1.245,0,0,1,73,74.2a1.166,1.166,0,0,1,1.137,1.163l.032,2.167a19.831,19.831,0,0,1,10.944,3.947l.087-3.418,7-6.975a1.517,1.517,0,0,1,1.2-.006,1.487,1.487,0,0,1,.492,1.07l-.006,5.4,5.926.069c.743.009.776,1.351.373,1.753l-6.928,6.9-3.325.01A20.016,20.016,0,0,1,93.9,97.243l1.935.04c.692.014,1.236.252,1.367.965a1.231,1.231,0,0,1-1.014,1.228l-2.309-.03a20.848,20.848,0,0,1-19.678,19.7ZM87.375,82.5l4.347-4.321-.034-3.449-4.354,4.308ZM92.4,84.051l4.278-4.345-3.446-.013-4.32,4.345ZM71.961,86.319l-.014-6.59A18.684,18.684,0,0,0,54.4,97.255l6.635.052A12.112,12.112,0,0,1,71.961,86.319m10.878,13.2-2.3-.067c-.365-.011-.873-.678-.9-1.038-.028-.32.344-1.07.7-1.079l2.509-.065c-.051-2.629-2.386-4.662-.748-5.356a1.27,1.27,0,0,1,1.507.527,13.618,13.618,0,0,1,1.471,4.851l6.618-.011a18.8,18.8,0,0,0-3.268-9.476c-.041-.3-.061-.88.129-1.029l.662-.518-2.579.046L73.648,99.283c-.386.386-1.146.084-1.41-.215-.217-.246-.424-.991-.113-1.3L85.111,84.781l.048-2.56-.636.727c-.156.179-.813.053-1.046-.035a18.056,18.056,0,0,0-9.337-3.146l.012,6.577A13.025,13.025,0,0,1,79.1,87.878a1.263,1.263,0,0,1,.318,1.6c-.794,1.324-2.709-.866-5.264-.9l-.043,2.35c-.01.545-.8.927-1.3.81a1.347,1.347,0,0,1-.851-1.038l-.045-2.138a9.815,9.815,0,0,0-8.7,8.707l2.666.074c.392.011.692,1.047.535,1.418a1.541,1.541,0,0,1-1.127.727l-2.066.005a9.915,9.915,0,0,0,8.684,8.676l.076-2.4c.012-.371.652-.838,1.006-.847.4-.01,1.118.4,1.123.759l.035,2.483a9.832,9.832,0,0,0,8.689-8.648M71.924,110.344a12.045,12.045,0,0,1-10.886-10.85l-6.631-.022A18.7,18.7,0,0,0,71.95,117ZM74.136,117A18.674,18.674,0,0,0,91.669,99.481l-6.62.015a12.048,12.048,0,0,1-10.9,10.862Z" transform="translate(-39.11 -56.69)" fill="#19538d"/>
          <path id="Trazado_1275361" data-name="Trazado 1275361" d="M3.35,85.293H15.09c.7,0,1.237.269,1.326.986A1.183,1.183,0,0,1,15.3,87.434l-11.9.007C1.832,87.442.009,86.327.009,84.5L0,41.123a3.175,3.175,0,0,1,3.2-3.014l4.463-.02a1.152,1.152,0,0,1,1.078,1.1A1.137,1.137,0,0,1,7.659,40.3L3.2,40.306a1.07,1.07,0,0,0-1.018,1.029V84.1a1.161,1.161,0,0,0,1.174,1.2" transform="translate(0 -30.431)" fill="#19538d"/>
          <path id="Trazado_1275362" data-name="Trazado 1275362" d="M67.984,13.1l-16.01.02a3.139,3.139,0,0,1-2.936-2.67,18.012,18.012,0,0,1,0-3.4,3.032,3.032,0,0,1,2.533-2.561l2.886-.148c-.327-1.941.639-4.041,2.6-4.23A39.718,39.718,0,0,1,62.444.065c2.1.085,3.311,2.154,2.9,4.29l2.741.116a3.156,3.156,0,0,1,2.788,3.143V9.924a3.2,3.2,0,0,1-2.889,3.18M63.129,4.431c.246-.541.167-1.875-.551-2.135a35.259,35.259,0,0,0-5.32.023c-.651.055-.778,1.328-.627,2.084Zm4.544,6.523a1.146,1.146,0,0,0,1-1.054l-.011-2.246c0-.721-.527-1.038-1.2-1.038l-15.483.009c-.446,0-.834.613-.833.968l0,2.325a1.1,1.1,0,0,0,1.027,1.036Z" transform="translate(-39.113 0.001)" fill="#19538d"/>
          <path id="Trazado_1275363" data-name="Trazado 1275363" d="M169.888,50.229l-.008-8.756a1.134,1.134,0,0,0-1.189-1.192l-4.255.008a1.205,1.205,0,0,1-1.132-1.112,1.174,1.174,0,0,1,1.138-1.107l4.606.048a3.2,3.2,0,0,1,3.048,3.348l-.007,8.677a1.244,1.244,0,0,1-.97,1.124,1.205,1.205,0,0,1-1.231-1.038" transform="translate(-130.47 -30.416)" fill="#19538d"/>
          <path id="Trazado_1275364" data-name="Trazado 1275364" d="M77.39,89.337l-16.271,0a1.163,1.163,0,0,1-1.224-.933,1.127,1.127,0,0,1,1.031-1.281l16.64,0c.521,0,.963.72.954,1.091a1.155,1.155,0,0,1-1.131,1.115" transform="translate(-47.845 -69.61)" fill="#19538d"/>
          <path id="Trazado_1275365" data-name="Trazado 1275365" d="M63.622,138.263a14.632,14.632,0,0,1-3.128.021c-.356-.031-.7-.877-.624-1.224a1.279,1.279,0,0,1,1.171-.91l2.125.006a1.534,1.534,0,0,1,1.053.769c.146.342-.176,1.3-.6,1.339" transform="translate(-47.823 -108.775)" fill="#19538d"/>
          <path id="Trazado_1275366" data-name="Trazado 1275366" d="M30.437,89.369l-2.27.021a1.294,1.294,0,0,1-1.133-.942,1.2,1.2,0,0,1,.981-1.262l2.456-.006c.43,0,.962.677.978,1.09a1.235,1.235,0,0,1-1.011,1.1" transform="translate(-21.591 -69.651)" fill="#19538d"/>
          <path id="Trazado_1275367" data-name="Trazado 1275367" d="M30.28,138.444l-2.106.005a1.262,1.262,0,0,1-1.139-.939,1.183,1.183,0,0,1,.983-1.249l2.451-.006c.434,0,.978.675.974,1.072a1.173,1.173,0,0,1-1.162,1.116" transform="translate(-21.592 -108.861)" fill="#19538d"/>
        </g>
      </g>
    </g>
  </g>
</svg>
