<svg xmlns="http://www.w3.org/2000/svg" xmlns:xlink="http://www.w3.org/1999/xlink" width="106" height="106" viewBox="0 0 106 106">
  <defs>
    <clipPath id="clip-path">
      <rect id="Rectángulo_460792" data-name="Rectángulo 460792" width="59.196" height="42.296" fill="#1e535a"/>
    </clipPath>
  </defs>
  <g id="Grupo_1212035" data-name="Grupo 1212035" transform="translate(0.49 0.49)">
    <circle id="Elipse_13890" data-name="Elipse 13890" cx="53" cy="53" r="53" transform="translate(105.51 105.51) rotate(180)" fill="#19538d"/>
    <circle id="Elipse_13891" data-name="Elipse 13891" cx="43.613" cy="43.613" r="43.613" transform="translate(95.736 96.736) rotate(180)" fill="#fff"/>
    <g id="Grupo_1212036" data-name="Grupo 1212036" transform="translate(22.51 31.51)">
      <g id="Grupo_1211056" data-name="Grupo 1211056" clip-path="url(#clip-path)">
        <path id="Trazado_1273532" data-name="Trazado 1273532" d="M101.566,33.852a2.166,2.166,0,0,0,2.236-2.145l.017-8.548a1.079,1.079,0,0,1,1.031-.94,1.147,1.147,0,0,1,1.1,1.134L105.9,31.89a4.285,4.285,0,0,1-4.748,4.073l-.039,3.909A2.619,2.619,0,0,1,98.5,42.283a2.661,2.661,0,0,1-2.637-2.625l-.02-3.671-2.129,0,0,3.683a2.619,2.619,0,1,1-5.238,0l0-3.683H86.358l-.019,3.671a2.678,2.678,0,0,1-2.472,2.626,2.626,2.626,0,0,1-2.777-2.409l-.049-3.9a4.326,4.326,0,0,1-4.742-4.1l-.005-21.482A4.311,4.311,0,0,1,81.04,6.3l.079-4.082A2.558,2.558,0,0,1,83.866.008a2.677,2.677,0,0,1,2.489,2.8l0,3.5h2.123l.035-3.886a2.6,2.6,0,0,1,5.189,0L93.732,6.3h2.113l.022-3.686A2.628,2.628,0,0,1,98.336.01,2.588,2.588,0,0,1,101.114,2.4l.042,3.9A4.289,4.289,0,0,1,105.9,10.38l.048,8.545a1.239,1.239,0,0,1-.929,1.122c-.356.088-1.191-.286-1.193-.768l-.031-8.72a2.087,2.087,0,0,0-1.965-2.113H80.369a2.092,2.092,0,0,0-1.975,2.136v21.1a2.137,2.137,0,0,0,2.157,2.164ZM84.228,6.261,84.215,2.63a.874.874,0,0,0-.512-.564c-.179-.028-.528.344-.528.563l.011,3.656Zm7.385,0,0-3.666a.512.512,0,1,0-1.018.02L90.6,6.292Zm7.413-4.159H97.985V6.3h1.041ZM84.22,35.967H83.179v4.2H84.22Zm7.4,3.68L91.6,35.983,90.6,36l-.007,3.654a.746.746,0,0,0,.512.561c.182,0,.516-.388.516-.573m7.418-.012-.021-3.662-1.034.043.008,3.6a.867.867,0,0,0,.516.593c.178.031.533-.381.532-.573" transform="translate(-61.503 0)" fill="#1e535a"/>
        <path id="Trazado_1273533" data-name="Trazado 1273533" d="M111.936,74.437a1.268,1.268,0,0,1-.9,1.183,1.093,1.093,0,0,1-1.229-.945l-.025-2.183h-2.125l.011,2.012a1.192,1.192,0,0,1-.895,1.1,1.13,1.13,0,0,1-1.222-.951l-.039-2.161-3.1,0a1.163,1.163,0,0,1-1.114-1.127l.01-3.1-2.205-.03a1.212,1.212,0,0,1-.948-1.041,1.116,1.116,0,0,1,1.133-1.078l2.016.013,0-2.138L99.269,64a1.226,1.226,0,0,1-1.1-.9,1.084,1.084,0,0,1,.959-1.212l2.174-.045,0-3.3a1.268,1.268,0,0,1,.908-.9l3.3-.006.033-2.2a1.183,1.183,0,0,1,1.042-.958,1.161,1.161,0,0,1,1.056.928l.02,2.233h2.127l-.012-2.044a1.192,1.192,0,0,1,.9-1.095,1.155,1.155,0,0,1,1.223.942l.038,2.2,3.1-.013a1.122,1.122,0,0,1,1.113,1.111l-.009,3.113,2.209.026a1.2,1.2,0,0,1,.939,1.046A1.132,1.132,0,0,1,118.164,64l-2.021-.005v2.138l2.035-.017a1.211,1.211,0,0,1,1.1.889c.074.374-.374,1.185-.769,1.2l-2.373.078.01,3.084a1.162,1.162,0,0,1-1.111,1.131l-3.116,0Zm2.1-14.69h-10.62V70.381h10.62Z" transform="translate(-79.126 -43.917)" fill="#1e535a"/>
        <path id="Trazado_1273534" data-name="Trazado 1273534" d="M5.438,75.56a1.112,1.112,0,0,1,.121,1.481,1.1,1.1,0,0,1-1.466.174,13.785,13.785,0,0,1,0-19.6,1.122,1.122,0,0,1,1.47.176A1.124,1.124,0,0,1,5.5,59.2,11.642,11.642,0,0,0,5.438,75.56" transform="translate(0 -46.277)" fill="#1e535a"/>
        <path id="Trazado_1273535" data-name="Trazado 1273535" d="M277.191,77.156a1.094,1.094,0,0,1-1.558-.107,1.113,1.113,0,0,1,.088-1.426,11.653,11.653,0,0,0,0-16.423,1.064,1.064,0,0,1,1.4-1.591,13.8,13.8,0,0,1,.066,19.547" transform="translate(-222.021 -46.276)" fill="#1e535a"/>
        <path id="Trazado_1273536" data-name="Trazado 1273536" d="M261.98,86.423a1.079,1.079,0,1,1-1.672-1.351,7.388,7.388,0,0,0,0-10.43,1.138,1.138,0,0,1-.007-1.481,1.107,1.107,0,0,1,1.515-.031,9.582,9.582,0,0,1,.166,13.293" transform="translate(-209.603 -58.722)" fill="#1e535a"/>
        <path id="Trazado_1273537" data-name="Trazado 1273537" d="M25.993,85.006a1.074,1.074,0,0,1-.047,1.641,1.117,1.117,0,0,1-1.505-.166,9.56,9.56,0,0,1,.211-13.445,1.067,1.067,0,0,1,1.4,1.6,7.342,7.342,0,0,0-.059,10.366" transform="translate(-17.559 -58.717)" fill="#1e535a"/>
        <path id="Trazado_1273538" data-name="Trazado 1273538" d="M246.706,95.772a1.147,1.147,0,0,1-1.653.33,1.1,1.1,0,0,1-.1-1.574,3.174,3.174,0,0,0,0-4.482,1.134,1.134,0,0,1,0-1.475,1.118,1.118,0,0,1,1.6.068,5.357,5.357,0,0,1,.151,7.134" transform="translate(-197.237 -71.152)" fill="#1e535a"/>
        <path id="Trazado_1273539" data-name="Trazado 1273539" d="M46.554,94.435a1.146,1.146,0,0,1,.051,1.523,1.12,1.12,0,0,1-1.707-.164,5.367,5.367,0,0,1,0-7.09,1.148,1.148,0,0,1,1.6-.269,1.093,1.093,0,0,1,.094,1.58,3.143,3.143,0,0,0-.038,4.421" transform="translate(-35.115 -71.114)" fill="#1e535a"/>
      </g>
    </g>
  </g>
</svg>
