<svg xmlns="http://www.w3.org/2000/svg" xmlns:xlink="http://www.w3.org/1999/xlink" width="106" height="106" viewBox="0 0 106 106">
  <defs>
    <clipPath id="clip-path">
      <rect id="Rectángulo_461243" data-name="Rectángulo 461243" width="57.677" height="57.699" fill="#1e535a"/>
    </clipPath>
    <clipPath id="clip-path-2">
      <rect id="Rectángulo_460791" data-name="Rectángulo 460791" width="54.466" height="54.05" transform="translate(0 0)" fill="#1e535a"/>
    </clipPath>
  </defs>
  <g id="Grupo_1212033" data-name="Grupo 1212033" transform="translate(0.49 0.49)">
    <circle id="Elipse_13890" data-name="Elipse 13890" cx="53" cy="53" r="53" transform="translate(105.51 105.51) rotate(180)" fill="#19538d"/>
    <circle id="Elipse_13891" data-name="Elipse 13891" cx="43.613" cy="43.613" r="43.613" transform="translate(95.834 96.392) rotate(180)" fill="#fff"/>
    <g id="Grupo_1188343" data-name="Grupo 1188343" transform="translate(25.037 25.596)">
      <rect id="Rectángulo_459838" data-name="Rectángulo 459838" width="54.364" height="54.364" transform="translate(-1.528 0.913)" fill="none"/>
      <g id="Grupo_1212032" data-name="Grupo 1212032" transform="translate(-3.528 -1.087)" clip-path="url(#clip-path)">
        <g id="Grupo_1212034" data-name="Grupo 1212034" transform="translate(2 2)">
          <g id="Grupo_1211054" data-name="Grupo 1211054" transform="translate(0 0.001)" clip-path="url(#clip-path-2)">
            <path id="Trazado_1273524" data-name="Trazado 1273524" d="M44.234,54.044l-32.605.008a.857.857,0,0,1-.895-.808.931.931,0,0,1,.728-.845l3.077-.013V49.643a2.071,2.071,0,0,1,2.1-2.092l2.471-.021V42.463H3.258A3.2,3.2,0,0,1,0,39.1L.005,3.21A3.11,3.11,0,0,1,3.105,0L51.527.008a3.1,3.1,0,0,1,2.939,3.2v36.06a3.211,3.211,0,0,1-3.414,3.206l-14.473-.014v5.07l2.59.03a1.974,1.974,0,0,1,1.981,1.77l.055,3.053,3,.008a1.023,1.023,0,0,1,.784.718c.049.274-.218.936-.758.936m8.6-52.426H1.639V40.83H52.831ZM34.947,42.467H20.79v5.055H34.947ZM39.508,49.2l-23.334.007v3.178l23.333-.007Z" transform="translate(0 -0.001)" fill="#1e535a"/>
            <path id="Trazado_1273525" data-name="Trazado 1273525" d="M90.155,171.022l-31.249,0a2.083,2.083,0,0,1-2.16-2l0-7.673a2.03,2.03,0,0,1,1.838-1.951H90.4a2.029,2.029,0,0,1,1.838,1.952l0,7.663a2.075,2.075,0,0,1-2.085,2.007m.454-9.974H58.378v8.322H90.609Z" transform="translate(-47.258 -132.756)" fill="#1e535a"/>
            <path id="Trazado_1273526" data-name="Trazado 1273526" d="M110.728,41.356c-8.272-1.783-10.691-8.838-10.04-16.584a2.5,2.5,0,0,1,.817-1.8,2.861,2.861,0,0,1,1.894-.451,7.832,7.832,0,0,0,5.908-1.861,2.284,2.284,0,0,1,3.142-.242,10.068,10.068,0,0,0,6.488,2.038,2.145,2.145,0,0,1,2.172,2.149,21.037,21.037,0,0,1-.887,8.952,11.521,11.521,0,0,1-9.494,7.794m.253-1.678c7.487-1.64,9.392-8.7,8.361-15.557a12.375,12.375,0,0,1-8.375-2.7,9.647,9.647,0,0,1-5.261,2.668,23.552,23.552,0,0,1-3.24.13c-1,6.924,1.007,13.965,8.515,15.455" transform="translate(-83.774 -16.578)" fill="#1e535a"/>
            <path id="Trazado_1273527" data-name="Trazado 1273527" d="M84.773,181.625c-.181.4-.487,1-.952.969a.953.953,0,0,1-.829-1.073l-1.028.423c-.248.1-.757-.377-.776-.648a1.339,1.339,0,0,1,.453-.943l.834-.61-1.176-1c-.236-.2-.045-1.008.241-1.138a1.545,1.545,0,0,1,1.409.318c.062-.353.28-.912.566-1.033a.9.9,0,0,1,1.109.59l.1.351c.047.166.943-.728,1.554-.067a.936.936,0,0,1-.081,1.181l-1.008.764,1.083.876a.923.923,0,0,1-.076,1.188c-.317.264-1,.051-1.423-.148" transform="translate(-67.616 -147.28)" fill="#1e535a"/>
            <path id="Trazado_1273528" data-name="Trazado 1273528" d="M216.454,181.478l-.372.863c-.1.235-.891.267-1.019.045l-.5-.858a1.969,1.969,0,0,1-1.165.318c-.344-.061-.738-.858-.433-1.124l1.186-1.035-1.208-1.1c-.246-.223.121-1.05.45-1.1a2.789,2.789,0,0,1,1.2.3c.149-.371.468-.954.811-1.007a.909.909,0,0,1,.947,1.065,4.32,4.32,0,0,1,1.194-.384c.447-.028.885.826.541,1.141l-1.175,1.075.976.773a.894.894,0,0,1,.026,1.246c-.375.292-.928.178-1.462-.222" transform="translate(-177.28 -147.228)" fill="#1e535a"/>
            <path id="Trazado_1273529" data-name="Trazado 1273529" d="M128.489,181.566c-.038.408-.323.956-.7,1.026-.625.117-1.028-.361-1.008-1.034a4.25,4.25,0,0,1-1.182.4c-.337.026-.816-.718-.617-1.013a4.763,4.763,0,0,1,1.254-1.156l-1.14-1.019c-.26-.232-.082-.968.244-1.137a1.491,1.491,0,0,1,1.37.3l.384-.888c.094-.217.761-.228.944-.075a2.191,2.191,0,0,1,.454.94,2.523,2.523,0,0,1,1.271-.348c.329.046.684.881.435,1.1l-1.188,1.068,1.119.977c.256.223.072,1.017-.242,1.146a1.6,1.6,0,0,1-1.4-.294" transform="translate(-104.052 -147.305)" fill="#1e535a"/>
            <path id="Trazado_1273530" data-name="Trazado 1273530" d="M172.574,181.639l-.375.833c-.1.215-.755.215-.946.072a2.071,2.071,0,0,1-.46-.969,1.866,1.866,0,0,1-1.246.384c-.433-.1-.717-.91-.36-1.218l1.113-.962-1.145-.974c-.241-.205-.062-1,.248-1.142a1.55,1.55,0,0,1,1.384.31,4.815,4.815,0,0,1,.376-.892.919.919,0,0,1,.943-.071,2.164,2.164,0,0,1,.454.923,4.32,4.32,0,0,1,1.14-.353c.4-.025.886.83.553,1.133l-1.185,1.08a5.9,5.9,0,0,1,1.25,1.188c.163.231-.223.942-.5.986a2.611,2.611,0,0,1-1.244-.329" transform="translate(-140.772 -147.343)" fill="#1e535a"/>
            <path id="Trazado_1273531" data-name="Trazado 1273531" d="M148.084,64.909a.95.95,0,0,1-.741.905.852.852,0,0,1-.93-.869l-.01-1.7a3.12,3.12,0,0,1-2.159-3.389,3.028,3.028,0,0,1,5.963-.134,3.072,3.072,0,0,1-2.124,3.52Zm.524-4.612a1.369,1.369,0,1,0-1.369,1.369,1.369,1.369,0,0,0,1.369-1.369" transform="translate(-120.105 -47.706)" fill="#1e535a"/>
          </g>
        </g>
      </g>
    </g>
  </g>
</svg>
