<svg xmlns="http://www.w3.org/2000/svg" xmlns:xlink="http://www.w3.org/1999/xlink" width="96" height="96" viewBox="0 0 96 96">
  <defs>
    <clipPath id="clip-path">
      <rect id="Rectángulo_461199" data-name="Rectángulo 461199" width="51.667" height="57.027" fill="#19538d"/>
    </clipPath>
  </defs>
  <g id="Grupo_1212047" data-name="Grupo 1212047" transform="translate(-383.67 -8399.924)">
    <circle id="Elipse_13890" data-name="Elipse 13890" cx="48" cy="48" r="48" transform="translate(383.67 8399.924)" fill="#5a9ad7"/>
    <path id="Intersección_1" data-name="Intersección 1" d="M0,47.89A47.893,47.893,0,0,1,79.511,11.92L1.1,58.131A48,48,0,0,1,0,47.89Z" transform="translate(383.779 8400.031)" fill="#19538d"/>
    <path id="Trazado_1032916" data-name="Trazado 1032916" d="M40,0A40,40,0,1,1,0,40,40,40,0,0,1,40,0Z" transform="translate(391.67 8407.924)" fill="#e6f3ff"/>
    <g id="Grupo_1188343" data-name="Grupo 1188343" transform="translate(406.837 8422.38)">
      <rect id="Rectángulo_459838" data-name="Rectángulo 459838" width="52" height="52" transform="translate(-0.167 0.544)" fill="none"/>
      <g id="Grupo_1212048" data-name="Grupo 1212048" transform="translate(-1.167 -2.456)">
        <g id="Grupo_1211887" data-name="Grupo 1211887" clip-path="url(#clip-path)">
          <path id="Trazado_1275465" data-name="Trazado 1275465" d="M49.931,38.318,49.946,15.7a.915.915,0,0,1,.885-.847.9.9,0,0,1,.83.9l0,26.185a3.955,3.955,0,0,1-3.855,4L31,45.965l1.076,4.149,2.5.08A4.782,4.782,0,0,1,38.9,54.874,1.933,1.933,0,0,1,37,57.028H14.657A1.971,1.971,0,0,1,12.762,54.7a4.936,4.936,0,0,1,4.179-4.5,26.141,26.141,0,0,1,2.628-.072l1.094-4.168L3.856,45.942A3.958,3.958,0,0,1,0,41.936L.007,9.226A3.936,3.936,0,0,1,3.832,5.332L11.753,5.3a2.369,2.369,0,0,1,1.371-.84,1.991,1.991,0,0,1,1.49.819l4.288.015L16.5,2.847a1.692,1.692,0,0,1-.429-1.64A1.672,1.672,0,0,1,17.39.124a7.359,7.359,0,0,1,8.469,5.191l22.107.025a3.9,3.9,0,0,1,3.671,3.836l.03,2.556a.951.951,0,0,1-.846.848.922.922,0,0,1-.87-.79L49.923,9.1A2.228,2.228,0,0,0,47.95,7.025L26.16,7.01a5.585,5.585,0,0,0,1.527,3.465l1.53,1.51a2.7,2.7,0,0,1,4.8,2.215,2.72,2.72,0,0,1,2,2.792,2.732,2.732,0,0,1,2.265,3.432,2.634,2.634,0,0,1,1.9,2.557l1.78,1.824a3.984,3.984,0,0,1-5.443,5.772l-1.626-1.558-2.658,1.328a11.905,11.905,0,0,0-1.986.927,17.583,17.583,0,0,0-1.725,1.666,2.463,2.463,0,0,1-.226,2.822,2.436,2.436,0,0,1-2.539.861l-1.558,1.685ZM24.037,15.862a1.294,1.294,0,0,0,.844.425l3.085-3.076C26.285,11.6,24.615,9.649,24.5,7.331a5.732,5.732,0,0,0-6.682-5.565l3.134,3.192A3.172,3.172,0,0,1,16.479,9.43L13.312,6.319A5.552,5.552,0,0,0,18.1,12.841a8.34,8.34,0,0,1,5.936,3.022M16.754,28.185l-3.232,3.241a1.02,1.02,0,0,1-1.183-.115,1.109,1.109,0,0,1-.02-1.1l3.316-3.334a2.568,2.568,0,0,1,.79-3.1,2.746,2.746,0,0,1,3.068-.068c2.512-1.65-.539-4.52,2.054-7.929A7.111,7.111,0,0,0,17.9,14.532,7.291,7.291,0,0,1,11.515,7L3.7,7.042A2.23,2.23,0,0,0,1.715,9.153V38.265l2.492.054,5.339-5.343a.9.9,0,0,1,1.278,0,.859.859,0,0,1-.067,1.194L6.678,38.3l14.98.021,2.623-2.612ZM20.043,7.008l-3.663.011,1.115,1.1a1.572,1.572,0,0,0,1.65.265,1.693,1.693,0,0,0,.9-1.372m14.83,19.843L38.209,23.7a1.225,1.225,0,0,0,.189-1.125c-.447-.88-1.83-.294-2.118-1.172-.358-1.089,1.01-1.739.028-2.491-.756-.579-1.742.351-2.273-.5-.43-.685.709-1.49.023-2.3-.584-.692-1.921.394-2.37-.6-.438-.963,1.279-1.588.475-2.583a.982.982,0,0,0-1.5-.022L26.158,17.4a2.188,2.188,0,0,1-1.909.582A3.456,3.456,0,0,1,22.8,16.923a4.482,4.482,0,0,0-.6,3.617,4.382,4.382,0,0,1-1.492,4.426l6.656,6.654c.608-.573,1.113-1.152,1.734-1.637,1.248-.973,4.023-1.484,5.768-3.131m2.6,2.344a2.263,2.263,0,0,0,3.149-.185,2.2,2.2,0,0,0,.121-3l-1.232-1.274-3.309,3.275ZM26.966,33.652,18.688,25.36a1.019,1.019,0,0,0-1.215-.252c-.254.141-.547.834-.289,1.093l8.487,8.5a.9.9,0,0,0,1.233.068.813.813,0,0,0,.062-1.118M47.858,44.269a2.226,2.226,0,0,0,2.063-2.114l-.005-2.128H1.742l-.007,2.13a2.227,2.227,0,0,0,2.141,2.112ZM30.33,50.146l-1.094-4.188-6.83.01-1.082,4.185Zm6.89,5.187A3.257,3.257,0,0,0,33.9,51.825H17.749a3.18,3.18,0,0,0-3.255,3.519Z" transform="translate(-0.001 0)" fill="#19538d"/>
        </g>
      </g>
    </g>
  </g>
</svg>
