<svg xmlns="http://www.w3.org/2000/svg" xmlns:xlink="http://www.w3.org/1999/xlink" width="96" height="96" viewBox="0 0 96 96">
  <defs>
    <clipPath id="clip-path">
      <rect id="Rectángulo_461200" data-name="Rectángulo 461200" width="34.335" height="57.027" fill="#19538d"/>
    </clipPath>
  </defs>
  <g id="Grupo_1212045" data-name="Grupo 1212045" transform="translate(-383.67 -8399.924)">
    <circle id="Elipse_13890" data-name="Elipse 13890" cx="48" cy="48" r="48" transform="translate(383.67 8399.924)" fill="#5a9ad7"/>
    <path id="Intersección_1" data-name="Intersección 1" d="M0,47.89A47.893,47.893,0,0,1,79.511,11.92L1.1,58.131A48,48,0,0,1,0,47.89Z" transform="translate(383.779 8400.031)" fill="#19538d"/>
    <path id="Trazado_1032916" data-name="Trazado 1032916" d="M40,0A40,40,0,1,1,0,40,40,40,0,0,1,40,0Z" transform="translate(391.67 8407.924)" fill="#e6f3ff"/>
    <g id="Grupo_1188343" data-name="Grupo 1188343" transform="translate(406.837 8422.38)">
      <rect id="Rectángulo_459838" data-name="Rectángulo 459838" width="52" height="52" transform="translate(-0.167 0.544)" fill="none"/>
      <g id="Grupo_1212046" data-name="Grupo 1212046" transform="translate(8.833 -2.456)">
        <g id="Grupo_1211889" data-name="Grupo 1211889" clip-path="url(#clip-path)">
          <path id="Trazado_1275466" data-name="Trazado 1275466" d="M33.656,54.018a2.614,2.614,0,0,1-2.54,3.009H3.218A2.593,2.593,0,0,1,.683,54.084,6.37,6.37,0,0,1,.9,51.892c.153-.347,1.038-.365,1.621-.277L2.545,45.5.857,45.47c-.262,0-.762-.4-.767-.706L0,38.024c-.042-3.227.512-6.212,3.725-7.295,2.86-.963,5.715-1.679,8.693-2.423l.539-1.942a9.841,9.841,0,0,1-4.841-5.469,3.787,3.787,0,0,1-2.767-1.8,3.822,3.822,0,0,1,.115-3.629C4.918,13.415,4.037,11.2,4.7,9.005A12.936,12.936,0,0,1,16.089.038a13.106,13.106,0,0,1,12.9,7.477c1.1,2.308.3,4.757-.144,7.4a3.6,3.6,0,0,1,.734,3.967,3.694,3.694,0,0,1-3.46,2.021,9.609,9.609,0,0,1-4.77,5.383l.561,2.016,4.817,1.244a31.455,31.455,0,0,1,4.345,1.379c2.844,1.192,3.295,4.112,3.256,7.116l-.088,6.72c0,.3-.507.711-.764.712l-1.687,0,.021,6.147c.592-.1,1.451-.094,1.625.273a6,6,0,0,1,.217,2.119m-7.856-40,1.423.069.475-3a4.716,4.716,0,0,0-.158-2.42A11.289,11.289,0,0,0,16.532,1.8a11.141,11.141,0,0,0-10.12,7.73c-.468,1.569.143,3.153.535,4.677.752-.069,1.341-.328,1.973-.423,1.441-.215,2.906-.187,4.29-.5A9.2,9.2,0,0,0,19,9.107a2.955,2.955,0,0,1,2.369-1.19c2.352.063,3.724,3.629,4.432,6.1M11.379,22.949a7.651,7.651,0,0,0,9.942,1.324,7.8,7.8,0,0,0,2.857-9.616c-.629-1.561-1.5-4.736-2.784-4.955a1.424,1.424,0,0,0-1,.464C18,14.088,14.28,15.372,9.71,15.482a7.892,7.892,0,0,0,1.669,7.468m15.205-3.867a1.63,1.63,0,0,0,1.5-1.86,1.611,1.611,0,0,0-1.658-1.4c.113,1.133.149,2.161.155,3.258M7.691,15.973a1.64,1.64,0,0,0-1,1.424,1.7,1.7,0,0,0,.924,1.5ZM20.176,28.707l-.481-1.743a9.426,9.426,0,0,1-5.058.014l-.392,1.685,3.007,1.987ZM15.6,31.715l-2.163-1.492a1.1,1.1,0,0,0-1.111.011L14.1,32.756Zm4.809,1.029,1.729-2.47a1.042,1.042,0,0,0-1.188.025L18.86,31.738ZM2.543,43.542l-.018-7.436A2.563,2.563,0,0,1,4.867,33.4l7.469-.017-1.915-2.752-5.94,1.7c-2.275.65-2.728,2.876-2.7,5.236l.075,6.095Zm29.936.1.071-6.08c.032-2.684-.473-4.643-3.065-5.366l-5.451-1.52-1.895,2.7,7.182.018a2.538,2.538,0,0,1,2.489,2.7l-.015,7.518Zm-2.454-8.478-25.717,0,0,16.439,25.717,0Zm1.528,20.065a1.817,1.817,0,0,0,.129-1.875H2.564a2.134,2.134,0,0,0,.257,1.874Z" transform="translate(0 0)" fill="#19538d"/>
          <path id="Trazado_1275467" data-name="Trazado 1275467" d="M93.558,250.342a2.794,2.794,0,1,1-2.794-2.794,2.794,2.794,0,0,1,2.794,2.794m-1.783-.007a1.012,1.012,0,1,0-1.012,1.012,1.012,1.012,0,0,0,1.012-1.012" transform="translate(-73.596 -207.099)" fill="#19538d"/>
        </g>
      </g>
    </g>
  </g>
</svg>
