<svg xmlns="http://www.w3.org/2000/svg" xmlns:xlink="http://www.w3.org/1999/xlink" width="96" height="96" viewBox="0 0 96 96">
  <defs>
    <clipPath id="clip-path">
      <rect id="Rectángulo_461171" data-name="Rectángulo 461171" width="47.641" height="47.641" fill="#19538d"/>
    </clipPath>
  </defs>
  <g id="Grupo_1212010" data-name="Grupo 1212010" transform="translate(-383.67 -8399.924)">
    <circle id="Elipse_13890" data-name="Elipse 13890" cx="48" cy="48" r="48" transform="translate(383.67 8399.924)" fill="#5a9ad7"/>
    <path id="Intersección_1" data-name="Intersección 1" d="M0,47.89A47.893,47.893,0,0,1,79.511,11.92L1.1,58.131A48,48,0,0,1,0,47.89Z" transform="translate(383.779 8400.031)" fill="#19538d"/>
    <path id="Trazado_1032916" data-name="Trazado 1032916" d="M40,0A40,40,0,1,1,0,40,40,40,0,0,1,40,0Z" transform="translate(391.67 8407.924)" fill="#e6f3ff"/>
    <g id="Grupo_1188343" data-name="Grupo 1188343" transform="translate(406.126 8422.38)">
      <rect id="Rectángulo_459838" data-name="Rectángulo 459838" width="52" height="52" transform="translate(0.544 -0.456)" fill="none"/>
      <g id="Grupo_1212011" data-name="Grupo 1212011" transform="translate(2.544 1.543)">
        <g id="Grupo_1211840" data-name="Grupo 1211840" clip-path="url(#clip-path)">
          <path id="Trazado_1275419" data-name="Trazado 1275419" d="M244.932,237.633a7.752,7.752,0,1,1-7.752-7.752,7.752,7.752,0,0,1,7.752,7.752m-5.149,1.026a5.217,5.217,0,0,1,2.391,3.215,6.556,6.556,0,1,0-9.985-.029,5.151,5.151,0,0,1,2.518-3.263,3.534,3.534,0,0,1,5.113-4.879,3.578,3.578,0,0,1-.037,4.956m1.3,4.229a3.861,3.861,0,0,0-2.631-3.525c-.165-.058-.478-.374-.45-.546a2.409,2.409,0,0,1,.244-.58,2.268,2.268,0,0,0,1.3-2.616,2.335,2.335,0,0,0-4.521-.124,2.4,2.4,0,0,0,1.159,2.74.83.83,0,0,1,.29.583.849.849,0,0,1-.419.473,3.935,3.935,0,0,0-2.78,3.582,6.482,6.482,0,0,0,7.811.014" transform="translate(-198.107 -198.497)" fill="#19538d"/>
          <path id="Trazado_1275420" data-name="Trazado 1275420" d="M244.936,13.714a7.752,7.752,0,1,1-7.752-7.752,7.752,7.752,0,0,1,7.752,7.752m-5.141,1.023a5.329,5.329,0,0,1,2.387,3.218,6.555,6.555,0,1,0-9.991-.028,5.237,5.237,0,0,1,2.509-3.265,3.537,3.537,0,0,1,5.117-4.883,3.582,3.582,0,0,1-.023,4.958m1.3,4.228c-.268-3.3-3.043-3.3-3.094-4.058a.855.855,0,0,1,.3-.568,2.4,2.4,0,0,0,1.255-2.648,2.342,2.342,0,0,0-4.523-.121,2.4,2.4,0,0,0,1.151,2.745.865.865,0,0,1,.3.576.82.82,0,0,1-.411.487,3.9,3.9,0,0,0-2.791,3.573,6.456,6.456,0,0,0,7.814.014" transform="translate(-198.11 -5.148)" fill="#19538d"/>
          <path id="Trazado_1275421" data-name="Trazado 1275421" d="M21.477,237.63a7.752,7.752,0,1,1-7.752-7.752,7.752,7.752,0,0,1,7.752,7.752m-5.158,1.026a5.392,5.392,0,0,1,2.421,3.184,6.554,6.554,0,1,0-10.007.032,5.427,5.427,0,0,1,2.507-3.32,3.528,3.528,0,0,1,5.1-4.876,3.552,3.552,0,0,1-.02,4.979m1.338,4.186c-.345-3.207-3.009-3.27-3.094-4.018a.816.816,0,0,1,.307-.583,2.344,2.344,0,1,0-2.846-3.605,2.313,2.313,0,0,0,.69,3.553.962.962,0,0,1,.254.75c-.205.583-2.938.727-3.129,3.962a6.465,6.465,0,0,0,7.818-.058" transform="translate(-5.158 -198.495)" fill="#19538d"/>
          <path id="Trazado_1275422" data-name="Trazado 1275422" d="M21.471,13.713a7.752,7.752,0,1,1-7.752-7.752,7.752,7.752,0,0,1,7.752,7.752m-5.141,1.035a5.26,5.26,0,0,1,2.386,3.175,6.547,6.547,0,1,0-9.994.029,5.34,5.34,0,0,1,2.51-3.294A3.538,3.538,0,0,1,16.385,9.81a3.6,3.6,0,0,1-.054,4.938m1.315,4.167a4,4,0,0,0-2.684-3.5.8.8,0,0,1-.4-.52.819.819,0,0,1,.316-.579,2.339,2.339,0,1,0-2.844-3.6,2.293,2.293,0,0,0,.67,3.54,1.341,1.341,0,0,1,.291.631.791.791,0,0,1-.441.513,3.825,3.825,0,0,0-2.723,3.576,6.424,6.424,0,0,0,7.819-.064" transform="translate(-5.152 -5.147)" fill="#19538d"/>
          <path id="Trazado_1275423" data-name="Trazado 1275423" d="M116.722,116.559c.716.746,1.755,1.06,1.371,1.59a1.778,1.778,0,0,1-.58.432,4.934,4.934,0,0,1-5.066-.4,10.284,10.284,0,0,1-10.556-3.118,10.076,10.076,0,0,1,2.062-15.1,10.349,10.349,0,0,1,12.655,1.015,10.033,10.033,0,0,1,.227,14.648.952.952,0,0,0-.113.937m-.56,1.145a1.917,1.917,0,0,1-.208-2.841,8.886,8.886,0,0,0,.43-12.42,9.126,9.126,0,0,0-13.511.006,8.86,8.86,0,0,0,.744,12.654,9.105,9.105,0,0,0,9.071,1.75,3.364,3.364,0,0,0,3.474.851" transform="translate(-85.809 -84.85)" fill="#19538d"/>
          <path id="Trazado_1275424" data-name="Trazado 1275424" d="M322.2,127.7a.687.687,0,0,1-.848.422.666.666,0,0,1-.3-.8,15.251,15.251,0,0,0,.22-12.951l-.279.51a.823.823,0,0,1-.621.4c-.25-.038-.614-.476-.524-.715l.8-2.123a.771.771,0,0,1,.669-.355l2.11.8a.765.765,0,0,1,.348.729.744.744,0,0,1-.722.386l-.678-.132A16.494,16.494,0,0,1,322.2,127.7" transform="translate(-276.173 -96.778)" fill="#19538d"/>
          <path id="Trazado_1275425" data-name="Trazado 1275425" d="M3.211,134.62a.667.667,0,0,1-.864.414l-1.931-.749a.665.665,0,0,1-.35-.77.718.718,0,0,1,.761-.35l.6.158a16.478,16.478,0,0,1,.211-13.877.661.661,0,0,1,.82-.365.667.667,0,0,1,.3.8,15.258,15.258,0,0,0-.221,12.951l.268-.523a.732.732,0,0,1,.755-.389.652.652,0,0,1,.357.838Z" transform="translate(0 -102.792)" fill="#19538d"/>
          <path id="Trazado_1275426" data-name="Trazado 1275426" d="M114.641,2.529l.525.273a.857.857,0,0,1,.394.645c-.038.266-.49.579-.726.491L112.8,3.178a.694.694,0,0,1-.383-.88l.815-2.046c.076-.192.559-.292.713-.206s.389.4.353.567l-.173.823a16.494,16.494,0,0,1,13.891.2.65.65,0,0,1,.363.818.644.644,0,0,1-.9.259,15.3,15.3,0,0,0-12.842-.184" transform="translate(-97.033 0)" fill="#19538d"/>
          <path id="Trazado_1275427" data-name="Trazado 1275427" d="M134.181,323.6c-.076.192-.635.259-.782.134a.867.867,0,0,1-.24-.782l.125-.531a16.454,16.454,0,0,1-13.881-.2.754.754,0,0,1-.4-.7c.032-.224.485-.579.748-.449a15.175,15.175,0,0,0,13.111.209l-.834-.423c-.162-.082-.162-.51-.086-.676a.805.805,0,0,1,.788-.262l1.93.742a.709.709,0,0,1,.386.78Z" transform="translate(-102.749 -276.215)" fill="#19538d"/>
          <path id="Trazado_1275428" data-name="Trazado 1275428" d="M149.032,155.21l-8.089.008a.811.811,0,0,1-.65-.605.736.736,0,0,1,.632-.61l8.192.006c.2,0,.512.406.517.6a.782.782,0,0,1-.6.6" transform="translate(-121.14 -132.978)" fill="#19538d"/>
          <rect id="Rectángulo_461170" data-name="Rectángulo 461170" width="9.295" height="1.153" transform="translate(19.172 25.359)" fill="#19538d"/>
        </g>
      </g>
    </g>
  </g>
</svg>
