<svg xmlns="http://www.w3.org/2000/svg" xmlns:xlink="http://www.w3.org/1999/xlink" width="150.004" height="150.005" viewBox="0 0 150.004 150.005">
  <defs>
    <clipPath id="clip-path">
      <rect id="Rectángulo_461234" data-name="Rectángulo 461234" width="84.457" height="84.476" fill="#1e535a"/>
    </clipPath>
  </defs>
  <g id="Grupo_1212073" data-name="Grupo 1212073" transform="translate(-309.035 -8564)">
    <circle id="Elipse_13890" data-name="Elipse 13890" cx="75.002" cy="75.002" r="75.002" transform="translate(459.039 8714.004) rotate(180)" fill="#7dbfff"/>
    <path id="Intersección_3" data-name="Intersección 3" d="M21489.994,11830.457l123.867-71.069a75.008,75.008,0,0,1-123.867,71.069Z" transform="translate(-21156.453 -3136)" fill="#19538d"/>
    <path id="Trazado_1032945" data-name="Trazado 1032945" d="M62.939,0A62.939,62.939,0,1,1,0,62.939,62.939,62.939,0,0,1,62.939,0Z" transform="translate(446.977 8701.646) rotate(180)" fill="#d5f4f8"/>
    <path id="Intersección_2" data-name="Intersección 2" d="M0,62.942a62.945,62.945,0,0,1,125.248-8.963L24.207,112.556A62.844,62.844,0,0,1,0,62.942Z" transform="translate(320.75 8575.77)" fill="#fff"/>
    <g id="Grupo_1212071" data-name="Grupo 1212071" transform="translate(339.205 8594.398)">
      <g id="Grupo_1099618" data-name="Grupo 1099618" transform="translate(-0.457 -0.63)">
        <rect id="Rectángulo_401104" data-name="Rectángulo 401104" width="88.993" height="90.065" transform="translate(0)" fill="none"/>
      </g>
      <g id="Grupo_1212074" data-name="Grupo 1212074" transform="translate(2.543 2.37)">
        <g id="Grupo_1211953" data-name="Grupo 1211953" clip-path="url(#clip-path)">
          <path id="Trazado_1275553" data-name="Trazado 1275553" d="M59.365,83.423l-7.892-1.969a5.808,5.808,0,0,1-3.968-3.03,5.289,5.289,0,0,1,4.054-7.848l-1.511-3.314L8.76,67.147A9.008,9.008,0,0,1,0,58.481V8.715C0,3.869,4.444,0,9.215,0L67.674.011A9.227,9.227,0,0,1,76.829,9.1l.037,39.373A8.012,8.012,0,0,1,78.448,50.7l4.746,10.425A16.255,16.255,0,0,1,72.721,83.006c-5.944,1.768-7.075,1.983-13.356.416m14.99-70.075.038-5.308a7.024,7.024,0,0,0-6.628-5.63L8.9,2.422A6.755,6.755,0,0,0,2.42,8.554c-.109,1.724-.066,3.154-.048,4.794ZM55.784,55.757a5.01,5.01,0,0,1,6.2-1.807,5.009,5.009,0,0,1,6.853-3.078A5.238,5.238,0,0,1,74.42,47.29L74.411,15.8l-72.057,0,.059,42.732c0,3.523,3.2,5.9,6.46,6.291l40.09-.007L40.2,45.493a5.021,5.021,0,0,1,1.9-6.537,5.11,5.11,0,0,1,6.8,1.6ZM76.05,51.252a2.606,2.606,0,0,0-3.505-1.3c-2.862,1.393-.089,4.4-1.948,5.043a1.389,1.389,0,0,1-1.481-.679,2.58,2.58,0,1,0-4.666,2.2,1.409,1.409,0,0,1-.581,1.551,1.464,1.464,0,0,1-1.52-.45,2.6,2.6,0,1,0-4.788,2.039,1.338,1.338,0,0,1-.652,1.664,1.276,1.276,0,0,1-1.58-.755l-8.313-18.4a2.587,2.587,0,0,0-4.821,1.861l12.2,26.943A1.666,1.666,0,0,1,54.33,72.2c-.7,1-2.868.224-4.381,1.756a2.976,2.976,0,0,0-.467,3,3.359,3.359,0,0,0,1.97,1.989l8.87,2.351a19.9,19.9,0,0,0,11.294-.385c8.017-2.337,12.593-10.614,9.426-18.666Z" transform="translate(0 0)" fill="#1e535a"/>
          <path id="Trazado_1275554" data-name="Trazado 1275554" d="M44.374,97.068l-13.752.008a1.347,1.347,0,0,1-1.3-1.437l0-13.777a1.248,1.248,0,0,1,1.028-1.171H44.541a1.215,1.215,0,0,1,1.095,1.161V95.892a1.266,1.266,0,0,1-1.261,1.176M43.3,83.052H31.68V94.639H43.3Z" transform="translate(-21.995 -60.524)" fill="#1e535a"/>
          <path id="Trazado_1275555" data-name="Trazado 1275555" d="M161.483,104.172l-35.019,0a1.356,1.356,0,0,1-1.306-.873c-.136-.521.177-1.524.876-1.524l35.53,0c.48,0,.914.7.941,1.047.034.419-.258,1.348-1.023,1.348" transform="translate(-93.856 -76.341)" fill="#1e535a"/>
          <path id="Trazado_1275556" data-name="Trazado 1275556" d="M161.446,132.091l-34.978.008a1.234,1.234,0,0,1-1.334-1.1,1.155,1.155,0,0,1,1.109-1.309l35.33,0c.479,0,.908.72.935,1.066.033.419-.28,1.331-1.061,1.331" transform="translate(-93.857 -97.278)" fill="#1e535a"/>
          <path id="Trazado_1275557" data-name="Trazado 1275557" d="M104.444,188.827l-9.178.017a1.283,1.283,0,0,1-1.312-1.227l-.007-9.309A1.5,1.5,0,0,1,95,177.314l9.591,0a1.533,1.533,0,0,1,.953,1.023l.014,9.28c0,.435-.583,1.212-1.117,1.213m-1.34-9.2H96.349v6.822H103.1Z" transform="translate(-70.468 -132.998)" fill="#1e535a"/>
          <path id="Trazado_1275558" data-name="Trazado 1275558" d="M40.864,188.765H29.346V177.214H40.864ZM38.5,179.552H31.7v6.822h6.8Z" transform="translate(-22.012 -132.925)" fill="#1e535a"/>
          <path id="Trazado_1275559" data-name="Trazado 1275559" d="M217.415,25.442a1.985,1.985,0,1,1-1.985-1.985,1.985,1.985,0,0,1,1.985,1.985" transform="translate(-160.102 -17.595)" fill="#1e535a"/>
          <path id="Trazado_1275560" data-name="Trazado 1275560" d="M271.286,25.406a1.991,1.991,0,1,1-1.991-1.991,1.991,1.991,0,0,1,1.991,1.991" transform="translate(-200.5 -17.563)" fill="#1e535a"/>
          <path id="Trazado_1275561" data-name="Trazado 1275561" d="M244.377,25.4a1.987,1.987,0,1,1-1.987-1.987,1.987,1.987,0,0,1,1.987,1.987" transform="translate(-180.322 -17.563)" fill="#1e535a"/>
        </g>
      </g>
    </g>
  </g>
</svg>
