<svg xmlns="http://www.w3.org/2000/svg" xmlns:xlink="http://www.w3.org/1999/xlink" width="150.004" height="150.005" viewBox="0 0 150.004 150.005">
  <defs>
    <clipPath id="clip-path">
      <rect id="Rectángulo_461235" data-name="Rectángulo 461235" width="78.033" height="78.095" fill="#1e535a"/>
    </clipPath>
  </defs>
  <g id="Grupo_1212075" data-name="Grupo 1212075" transform="translate(-309.035 -8564)">
    <circle id="Elipse_13890" data-name="Elipse 13890" cx="75.002" cy="75.002" r="75.002" transform="translate(459.039 8714.004) rotate(180)" fill="#7dbfff"/>
    <path id="Intersección_3" data-name="Intersección 3" d="M21489.994,11830.457l123.867-71.069a75.008,75.008,0,0,1-123.867,71.069Z" transform="translate(-21156.453 -3136)" fill="#19538d"/>
    <path id="Trazado_1032945" data-name="Trazado 1032945" d="M62.939,0A62.939,62.939,0,1,1,0,62.939,62.939,62.939,0,0,1,62.939,0Z" transform="translate(446.977 8701.646) rotate(180)" fill="#d5f4f8"/>
    <path id="Intersección_2" data-name="Intersección 2" d="M0,62.942a62.945,62.945,0,0,1,125.248-8.963L24.207,112.556A62.844,62.844,0,0,1,0,62.942Z" transform="translate(320.75 8575.77)" fill="#fff"/>
    <g id="Grupo_1212071" data-name="Grupo 1212071" transform="translate(339.205 8594.398)">
      <g id="Grupo_1099618" data-name="Grupo 1099618" transform="translate(-3.458 -0.63)">
        <rect id="Rectángulo_401104" data-name="Rectángulo 401104" width="88.993" height="90.065" transform="translate(0)" fill="none"/>
      </g>
      <g id="Grupo_1212076" data-name="Grupo 1212076" transform="translate(3.302 4.6)">
        <g id="Grupo_1099618-2" data-name="Grupo 1099618" transform="translate(-1.76 -0.23)">
          <rect id="Rectángulo_401104-2" data-name="Rectángulo 401104" width="79.902" height="80.865" transform="translate(0)" fill="none"/>
        </g>
        <g id="Grupo_1211956" data-name="Grupo 1211956" transform="translate(-0.759 1.77)">
          <g id="Grupo_1211955" data-name="Grupo 1211955" clip-path="url(#clip-path)">
            <path id="Trazado_1275562" data-name="Trazado 1275562" d="M37.65,169.335l6.788.043a4.68,4.68,0,0,1,.332,9.331l-5.321.049,4.466,4.515,6.75-3.88a1.305,1.305,0,0,1,1.487.467,1.24,1.24,0,0,1-.4,1.535L45.6,184.97a5.985,5.985,0,0,0,2.556,1.33l15.205-8.785a2.727,2.727,0,0,0-3.673-.7l-3.29,1.911a1.3,1.3,0,0,1-1.57-.4,1.232,1.232,0,0,1,.483-1.6l2.975-1.755a5.08,5.08,0,0,1,7.05,1.4,5.074,5.074,0,0,1,6.783,2.211l.866,1.592c2.74.168,4.27,2.092,4.88,4.577.388,1.582.2,3.413-1.68,3.918l-27.469,7.367A6.479,6.479,0,0,1,45.283,196L30.131,191.96a6.059,6.059,0,0,0-6.277,2.008l-2.061,2.757c1.03.6,2.131,2.073,1.362,3.084L16.3,208.825a2.3,2.3,0,0,1-1.517.72l-12.763,0A1.968,1.968,0,0,1,0,207.515l0-14.772A2.359,2.359,0,0,1,.586,191.3l17.561-17.528a14.959,14.959,0,0,1,10.342-4.388l3.912-.04a1.219,1.219,0,0,1,1.075,1.135,1.188,1.188,0,0,1-1.284,1.143l-3.355.045A12.751,12.751,0,0,0,20,175.181l-9.841,9.756,4.422,4.435a1.365,1.365,0,0,1,.24,1.5,1.282,1.282,0,0,1-1.659.371L8.508,186.6l-6.237,6.231-.007,14.438,12.331.01,6.339-8.253-4-3.993a1.443,1.443,0,0,1-.184-1.517c.2-.38,1.211-.672,1.554-.345l1.85,1.759,1.874-2.345A8.285,8.285,0,0,1,30.41,189.7L45.4,193.671a5.974,5.974,0,0,0,3.385-.032l27.005-7.246-.471-2.094a2.568,2.568,0,0,0-3.025-1.8L50.8,188.257a6.483,6.483,0,0,1-6.45-1.392l-8.162-8.141-3.794.007a1.253,1.253,0,0,1-1.211-1.1,1.2,1.2,0,0,1,1.262-1.187l11.629.008a2.407,2.407,0,1,0,.232-4.806l-6.658-.023a1.165,1.165,0,0,1-1.133-1.135,1.207,1.207,0,0,1,1.131-1.151M70.521,180.6c-.558-2.028-2.608-3.044-3.949-2.261l-10.182,5.948Z" transform="translate(0 -131.45)" fill="#1e535a"/>
            <path id="Trazado_1275563" data-name="Trazado 1275563" d="M167.323,26.01a1.931,1.931,0,0,0-1.675-.175l-6.266,3.427a2.477,2.477,0,0,1-2.555-.339,2.719,2.719,0,0,1-.943-2.722l1.138-6.3a1.979,1.979,0,0,0-.743-1.943c-1.731-1.557-3.3-3.029-4.952-4.717a2.673,2.673,0,0,1-.2-2.375,2.766,2.766,0,0,1,1.807-1.5l6.582-1.025a1.965,1.965,0,0,0,1.433-.785l3.226-6.457a2.6,2.6,0,0,1,4.239-.006l3.064,6.154a1.961,1.961,0,0,0,1.6,1.084l6.553,1.027a2.7,2.7,0,0,1,1.928,1.8,2.776,2.776,0,0,1-.959,2.816l-4.4,4.108a1.988,1.988,0,0,0-.588,2l1.154,6.547a2.6,2.6,0,0,1-1.259,2.485,2.726,2.726,0,0,1-2.777-.082Zm.508-2.284,6.688,3.57-1.23-7.37a3.83,3.83,0,0,1,1.417-3.556l4.884-4.636-7.737-1.325a3.654,3.654,0,0,1-2.37-2.045L166.3,2.054,163.029,8.5a3.756,3.756,0,0,1-2.871,2.046c-2.416.353-4.608.679-7.159,1.194l4.984,4.718a3.967,3.967,0,0,1,1.272,3.915c-.439,2.314-.815,4.429-1.127,6.933l6.554-3.544a3.484,3.484,0,0,1,3.148-.037" transform="translate(-117.174 0)" fill="#1e535a"/>
            <path id="Trazado_1275564" data-name="Trazado 1275564" d="M121.188,110.215a1.286,1.286,0,0,1-1.631.127,1.225,1.225,0,0,1-.159-1.594l2.625-2.631c.3-.3,1.273-.1,1.548.222a1.349,1.349,0,0,1-.027,1.518Z" transform="translate(-92.509 -82.26)" fill="#1e535a"/>
            <path id="Trazado_1275565" data-name="Trazado 1275565" d="M301.261,36.182a1.343,1.343,0,0,1-1.6.125,1.223,1.223,0,0,1-.08-1.719l2.524-2.517a1.413,1.413,0,0,1,1.544.211,1.3,1.3,0,0,1-.161,1.664Z" transform="translate(-232.314 -24.779)" fill="#1e535a"/>
            <path id="Trazado_1275566" data-name="Trazado 1275566" d="M123.34,34.653a1.144,1.144,0,1,1-1.617,1.618l-2.606-2.67c-.293-.3.039-1.281.4-1.471a1.483,1.483,0,0,1,1.548.221Z" transform="translate(-92.38 -24.845)" fill="#1e535a"/>
            <path id="Trazado_1275567" data-name="Trazado 1275567" d="M110.406,76.474l-3.256.02a1.425,1.425,0,0,1-1.31-.9c-.129-.429.363-1.407.913-1.408l3.829-.006c.411,0,.959.824.932,1.217a1.344,1.344,0,0,1-1.107,1.082" transform="translate(-82.145 -57.58)" fill="#1e535a"/>
            <path id="Trazado_1275568" data-name="Trazado 1275568" d="M303.2,108.522a1.364,1.364,0,0,1,.326,1.667c-.231.362-1.186.694-1.531.347l-2.86-2.884c-.3-.3.067-1.247.413-1.447a1.437,1.437,0,0,1,1.646.312Z" transform="translate(-232.126 -82.333)" fill="#1e535a"/>
            <path id="Trazado_1275569" data-name="Trazado 1275569" d="M312.609,76.372l-3.645.024a1.343,1.343,0,0,1-1.063-1.125,1.322,1.322,0,0,1,1.093-1.2l3.463-.007a1.422,1.422,0,0,1,1.1,1.006c.077.5-.4,1.3-.95,1.305" transform="translate(-239.014 -57.491)" fill="#1e535a"/>
          </g>
        </g>
      </g>
    </g>
  </g>
</svg>
