<svg xmlns="http://www.w3.org/2000/svg" xmlns:xlink="http://www.w3.org/1999/xlink" width="150.004" height="150.005" viewBox="0 0 150.004 150.005">
  <defs>
    <clipPath id="clip-path">
      <rect id="Rectángulo_461233" data-name="Rectángulo 461233" width="85.536" height="85.539" fill="#1e535a"/>
    </clipPath>
  </defs>
  <g id="Grupo_1212072" data-name="Grupo 1212072" transform="translate(-309.035 -8564)">
    <circle id="Elipse_13890" data-name="Elipse 13890" cx="75.002" cy="75.002" r="75.002" transform="translate(459.039 8714.004) rotate(180)" fill="#7dbfff"/>
    <path id="Intersección_3" data-name="Intersección 3" d="M21489.994,11830.457l123.867-71.069a75.008,75.008,0,0,1-123.867,71.069Z" transform="translate(-21156.453 -3136)" fill="#19538d"/>
    <path id="Trazado_1032945" data-name="Trazado 1032945" d="M62.939,0A62.939,62.939,0,1,1,0,62.939,62.939,62.939,0,0,1,62.939,0Z" transform="translate(446.977 8701.646) rotate(180)" fill="#d5f4f8"/>
    <path id="Intersección_2" data-name="Intersección 2" d="M0,62.942a62.945,62.945,0,0,1,125.248-8.963L24.207,112.556A62.844,62.844,0,0,1,0,62.942Z" transform="translate(320.75 8575.77)" fill="#fff"/>
    <g id="Grupo_1212071" data-name="Grupo 1212071" transform="translate(339.205 8594.398)">
      <g id="Grupo_1099618" data-name="Grupo 1099618" transform="translate(0 -0.23)">
        <rect id="Rectángulo_401104" data-name="Rectángulo 401104" width="88.993" height="90.065" transform="translate(0)" fill="none"/>
      </g>
      <g id="Grupo_1211952" data-name="Grupo 1211952" transform="translate(2.228 1.997)">
        <g id="Grupo_1211951" data-name="Grupo 1211951" clip-path="url(#clip-path)">
          <path id="Trazado_1275549" data-name="Trazado 1275549" d="M49.789,14.53,32.37,14.524a3.669,3.669,0,0,0-3.569,3.5l-.042,13.615.673-2.713A2.147,2.147,0,0,1,31.268,27.1a31.432,31.432,0,0,0,16.423-6.37,2.077,2.077,0,0,1,1.946-.069,14.736,14.736,0,0,1,7.071,11.018l.1-3.819c.011-.424.927-.926,1.337-.845a1.455,1.455,0,0,1,1.1,1.381l-.018,4.25a5.487,5.487,0,0,1-2.632,10.1A13.938,13.938,0,0,1,51.13,52.893l.051,2.99L65.537,59.2c2.974.688,4.64,3.591,4.837,6.433l.416,6.015a40.253,40.253,0,0,0-54.53-59.189,1.7,1.7,0,0,1-1.669-.443,1.465,1.465,0,0,1,.334-1.729,42.663,42.663,0,1,1-4.1,4,1.637,1.637,0,0,1,1.64-.187,1.457,1.457,0,0,1,.341,1.76,40.251,40.251,0,0,0,1.927,55.784l.433-6.183c.257-3.666,2.808-5.915,6.2-6.674l13.079-2.928.014-2.909a13.919,13.919,0,0,1-5.521-10.2,5.539,5.539,0,0,1-4.955-3.927,5.6,5.6,0,0,1,2.239-6.145l.068-14.3a6.27,6.27,0,0,1,6.3-6.358l16.912,0a5.193,5.193,0,0,1,5.2,5.059,5.172,5.172,0,0,1,4.542,5.466,1.344,1.344,0,0,1-1.05,1.509,1.257,1.257,0,0,1-1.443-1.46,2.761,2.761,0,0,0-2.781-3.071,1.9,1.9,0,0,1-1.793-2.153,2.608,2.608,0,0,0-2.383-2.837m-14.1,36.19a11.055,11.055,0,0,0,11.988,1.385,11.4,11.4,0,0,0,6.376-9.31c.214-3.49.157-6.912.052-10.447a11.555,11.555,0,0,0-5.328-9.3,34.072,34.072,0,0,1-16.92,6.54,16.893,16.893,0,0,0-.517,4.227l.1,8.787a10.743,10.743,0,0,0,4.245,8.12m-6.8-16.3a2.774,2.774,0,0,0-2.61,2.738,2.984,2.984,0,0,0,2.608,3.062Zm27.759,5.813a2.98,2.98,0,0,0-.022-5.911Zm.709,40.074V73.75A1.254,1.254,0,0,1,58.7,72.429a1.368,1.368,0,0,1,1.161,1.28l0,5.51a41.138,41.138,0,0,0,8.568-5.449l-.5-7.376c-.152-2.238-1.09-4.371-3.475-4.915l-9.393-2.14A12.334,12.334,0,0,1,36.6,69.052a1.376,1.376,0,0,1-.445-1.869,1.426,1.426,0,0,1,1.625-.336,9.913,9.913,0,0,0,10.1-.073,9.765,9.765,0,0,0,4.691-8.033,10.213,10.213,0,0,1-3.1-.868c-1.1-.66-.879-2.055-.857-3.392a13.98,13.98,0,0,1-11.659.017c.085,1.354.243,2.723-.888,3.4a9.37,9.37,0,0,1-3,.821c-.274,3.153,2.4,5.138.882,6.284-1.69,1.275-3.126-2.594-3.441-5.668l-9.429,2.15c-2.364.539-3.335,2.68-3.488,4.917l-.5,7.373a41.808,41.808,0,0,0,8.545,5.437l.044-5.488a1.226,1.226,0,0,1,1.39-1.162,1.352,1.352,0,0,1,1.1,1.42l.011,6.333a40.6,40.6,0,0,0,29.178,0" transform="translate(0 0)" fill="#1e535a"/>
          <path id="Trazado_1275550" data-name="Trazado 1275550" d="M159.413,182.279c3.782,1.324,5.689-1.034,6.428.6a1.292,1.292,0,0,1-.641,1.729c-3.441,1.337-7.942.5-7.37-1.535a1.324,1.324,0,0,1,1.583-.792" transform="translate(-119.116 -137.568)" fill="#1e535a"/>
          <path id="Trazado_1275551" data-name="Trazado 1275551" d="M147.266,144.986c-.026.412-.908.926-1.316.864a1.49,1.49,0,0,1-1.173-1.344l.177-2.135c.024-.289.7-.648.986-.679.34-.036,1.191.291,1.254.667a13.354,13.354,0,0,1,.071,2.627" transform="translate(-109.297 -106.968)" fill="#1e535a"/>
          <path id="Trazado_1275552" data-name="Trazado 1275552" d="M196.566,144.475a1.74,1.74,0,0,1-1.026,1.352c-.435.136-1.483-.333-1.483-.838v-2.473c0-.381.755-.808,1.094-.822s1.173.323,1.207.669Z" transform="translate(-146.502 -106.97)" fill="#1e535a"/>
        </g>
      </g>
    </g>
  </g>
</svg>
