<svg xmlns="http://www.w3.org/2000/svg" xmlns:xlink="http://www.w3.org/1999/xlink" width="96" height="96" viewBox="0 0 96 96">
  <defs>
    <clipPath id="clip-path">
      <rect id="Rectángulo_461167" data-name="Rectángulo 461167" width="54.498" height="50.417" fill="#19538d"/>
    </clipPath>
  </defs>
  <g id="Grupo_1188443" data-name="Grupo 1188443" transform="translate(-383.67 -8399.924)">
    <circle id="Elipse_13890" data-name="Elipse 13890" cx="48" cy="48" r="48" transform="translate(383.67 8399.924)" fill="#5a9ad7"/>
    <path id="Intersección_1" data-name="Intersección 1" d="M0,47.89A47.893,47.893,0,0,1,79.511,11.92L1.1,58.131A48,48,0,0,1,0,47.89Z" transform="translate(383.779 8400.031)" fill="#19538d"/>
    <path id="Trazado_1032916" data-name="Trazado 1032916" d="M40,0A40,40,0,1,1,0,40,40,40,0,0,1,40,0Z" transform="translate(391.67 8407.924)" fill="#e6f3ff"/>
    <g id="Grupo_1188343" data-name="Grupo 1188343" transform="translate(406.126 8422.38)">
      <rect id="Rectángulo_459838" data-name="Rectángulo 459838" width="52" height="52" transform="translate(-0.455 -0.456)" fill="none"/>
      <g id="Grupo_1212005" data-name="Grupo 1212005" transform="translate(-2.167 2.544)">
        <g id="Grupo_1211834" data-name="Grupo 1211834" clip-path="url(#clip-path)">
          <path id="Trazado_1275379" data-name="Trazado 1275379" d="M127.008,237.272l-14.306-.012a2.933,2.933,0,0,1-2.807-2.767l-.019-5.365a7.563,7.563,0,0,1,6.723-7.566,44.206,44.206,0,0,1,6.739,0,7.566,7.566,0,0,1,6.718,7.569l0,5.193a3,3,0,0,1-3.051,2.949m-4.3-1.723,0-6.375a1.047,1.047,0,0,1,1-.669.918.918,0,0,1,.709.951l-.007,6.1,2.677.007a1.3,1.3,0,0,0,1.29-1.25l-.021-5.168a6,6,0,0,0-5.57-5.971c-1.918-.084-3.71-.087-5.62,0a6.058,6.058,0,0,0-5.591,6.128l-.008,5.014a1.288,1.288,0,0,0,1.3,1.244l2.665,0,.015-6.393c0-.4.641-.743.981-.655a1.191,1.191,0,0,1,.717.8l-.007,6.26Z" transform="translate(-92.719 -186.855)" fill="#19538d"/>
          <path id="Trazado_1275380" data-name="Trazado 1275380" d="M17.281,124.637A8.641,8.641,0,1,1,8.641,116a8.641,8.641,0,0,1,8.641,8.641m-1.7,0a6.936,6.936,0,1,0-6.936,6.936,6.936,6.936,0,0,0,6.936-6.936" transform="translate(0 -97.882)" fill="#19538d"/>
          <path id="Trazado_1275381" data-name="Trazado 1275381" d="M255.611,124.64a8.641,8.641,0,1,1-8.64-8.641,8.64,8.64,0,0,1,8.64,8.641m-1.709,0a6.936,6.936,0,1,0-6.936,6.936,6.936,6.936,0,0,0,6.936-6.936" transform="translate(-201.113 -97.885)" fill="#19538d"/>
          <path id="Trazado_1275382" data-name="Trazado 1275382" d="M197.92,8.639A8.638,8.638,0,1,1,189.282,0a8.638,8.638,0,0,1,8.638,8.638m-1.7,0a6.937,6.937,0,1,0-6.937,6.937,6.937,6.937,0,0,0,6.937-6.937" transform="translate(-152.435 -0.001)" fill="#19538d"/>
          <path id="Trazado_1275383" data-name="Trazado 1275383" d="M74.994,8.639A8.639,8.639,0,1,1,66.355,0a8.639,8.639,0,0,1,8.639,8.639m-1.7,0a6.937,6.937,0,1,0-6.937,6.937A6.937,6.937,0,0,0,73.3,8.639" transform="translate(-48.703)" fill="#19538d"/>
          <path id="Trazado_1275384" data-name="Trazado 1275384" d="M148.452,139.4a5.913,5.913,0,1,1-5.913-5.913,5.913,5.913,0,0,1,5.913,5.913m-1.7-.005a4.21,4.21,0,1,0-4.21,4.21,4.211,4.211,0,0,0,4.21-4.21" transform="translate(-115.291 -112.639)" fill="#19538d"/>
          <path id="Trazado_1275385" data-name="Trazado 1275385" d="M28.169,147.444a1,1,0,0,1-.745.928c-.278.058-.94-.232-.943-.561l-.035-3.774-3.586,0c-.395,0-.751-.5-.76-.853a.9.9,0,0,1,.739-.844l3.615-.008.006-3.614a.91.91,0,0,1,.844-.741c.328.011.845.393.847.764l.017,3.595,3.456,0a.856.856,0,1,1,0,1.711l-3.459,0Z" transform="translate(-18.649 -116.433)" fill="#19538d"/>
          <path id="Trazado_1275386" data-name="Trazado 1275386" d="M266.272,150.37a1.26,1.26,0,0,1-1.659.019l-3.5-3.513a3.27,3.27,0,0,1-.09-4.393,3.368,3.368,0,0,1,4.451-.6,3.308,3.308,0,0,1,4.342,4.922Zm2.3-4.715a1.615,1.615,0,0,0-2.394-2.164.964.964,0,0,1-1.416.041,1.629,1.629,0,1,0-2.219,2.371l2.938,2.9Z" transform="translate(-219.586 -119.233)" fill="#19538d"/>
          <path id="Trazado_1275387" data-name="Trazado 1275387" d="M212.248,35.209l-8.825,0a.883.883,0,0,1-.834-.781l0-5.2a1.379,1.379,0,0,1,.7-1.04l4-2.114a1.5,1.5,0,0,1,1.04.017l3.88,2.042a1.316,1.316,0,0,1,.772,1.1l0,5.195a.886.886,0,0,1-.74.779m-3.6-3.123-.016,1.416,2.659,0-.006-3.921-3.481-1.836-3.5,1.839L204.3,33.5l2.625.01.045-1.711c.009-.347.6-.709.9-.665a.92.92,0,0,1,.779.955" transform="translate(-170.954 -21.931)" fill="#19538d"/>
          <path id="Trazado_1275388" data-name="Trazado 1275388" d="M99.314,30.838c-.91.351-.367,1.1-.968,1.485a1.008,1.008,0,0,1-.989-.04,1.484,1.484,0,0,1-.28-1.219,3.431,3.431,0,0,1-2-2.2.955.955,0,0,1,.56-.866c1.217-.357,1.261,2.06,2.951,1.339a.86.86,0,0,0,.4-.5c.04-.931-3.964-.319-3.62-3.539a2.68,2.68,0,0,1,1.677-1.852c-.044-.544.076-1.2.616-1.336a.838.838,0,0,1,1.047.791c0,.182.15.614.307.679a2.517,2.517,0,0,1,1.527,1.588.971.971,0,0,1-.432,1.076.885.885,0,0,1-1.127-.425c-.226-.626-.6-.773-1.319-.695a.927.927,0,0,0-.626.443.827.827,0,0,0,.462.733l1.491.408a2.2,2.2,0,0,1,1.681,1.862,2.166,2.166,0,0,1-1.357,2.272" transform="translate(-80.226 -18.632)" fill="#19538d"/>
        </g>
      </g>
    </g>
  </g>
</svg>
