<svg xmlns="http://www.w3.org/2000/svg" xmlns:xlink="http://www.w3.org/1999/xlink" width="96" height="96" viewBox="0 0 96 96">
  <defs>
    <clipPath id="clip-path">
      <rect id="Rectángulo_461172" data-name="Rectángulo 461172" width="48.834" height="49.591" fill="#19538d"/>
    </clipPath>
  </defs>
  <g id="Grupo_1212012" data-name="Grupo 1212012" transform="translate(-383.67 -8399.924)">
    <circle id="Elipse_13890" data-name="Elipse 13890" cx="48" cy="48" r="48" transform="translate(383.67 8399.924)" fill="#5a9ad7"/>
    <path id="Intersección_1" data-name="Intersección 1" d="M0,47.89A47.893,47.893,0,0,1,79.511,11.92L1.1,58.131A48,48,0,0,1,0,47.89Z" transform="translate(383.779 8400.031)" fill="#19538d"/>
    <path id="Trazado_1032916" data-name="Trazado 1032916" d="M40,0A40,40,0,1,1,0,40,40,40,0,0,1,40,0Z" transform="translate(391.67 8407.924)" fill="#e6f3ff"/>
    <g id="Grupo_1212013" data-name="Grupo 1212013" transform="translate(405.368 8421.586)">
      <g id="Grupo_1099618" data-name="Grupo 1099618" transform="translate(0.302 0.338)">
        <rect id="Rectángulo_401104" data-name="Rectángulo 401104" width="51.381" height="52" transform="translate(0)" fill="none"/>
      </g>
      <g id="Grupo_1211843" data-name="Grupo 1211843" transform="translate(1.302 1.338)">
        <g id="Grupo_1211842" data-name="Grupo 1211842" clip-path="url(#clip-path)">
          <path id="Trazado_1275429" data-name="Trazado 1275429" d="M1.436,27.208l0,4.74a.893.893,0,0,0,.765.863A5.962,5.962,0,0,1,6.422,43.038a.879.879,0,0,0-.008,1.078l3.39,3.4c.205.206.861.381,1.09.145a5.972,5.972,0,0,1,10.307,4.1.914.914,0,0,0,.928.848H26.7a.912.912,0,0,0,.928-.848,5.976,5.976,0,0,1,10.307-4.1c.293.3.929.031,1.167-.208l3.313-3.33a.878.878,0,0,0-.007-1.078,5.962,5.962,0,0,1,4.223-10.228.894.894,0,0,0,.767-.866L47.4,27.226c0-.623-.5-.865-1.048-.873a5.811,5.811,0,0,1-5.282-3.669,5.927,5.927,0,0,1,1.359-6.562.893.893,0,0,0-.016-1.082l-3.373-3.382a.913.913,0,0,0-1.316.064,5.822,5.822,0,0,1-6.531,1.165,5.9,5.9,0,0,1-3.558-5.479.882.882,0,0,0-.8-.8L22.147,6.6a.9.9,0,0,0-.953.941,5.876,5.876,0,0,1-3.889,5.489.792.792,0,0,1-.946-.335.773.773,0,0,1,.386-.959A4.6,4.6,0,0,0,19.812,7.29,2.193,2.193,0,0,1,21.983,5.2h4.869a2.191,2.191,0,0,1,2.17,2.09,4.612,4.612,0,0,0,2.631,4.264,4.476,4.476,0,0,0,5.149-.895,2.2,2.2,0,0,1,3.044-.1l3.65,3.669c.945.95.489,2.382-.329,3.227a4.33,4.33,0,0,0-.712,4.9,4.58,4.58,0,0,0,4.223,2.638,2.132,2.132,0,0,1,2.113,1.977l.043,4.956a2.414,2.414,0,0,1-2.647,2.365A4.473,4.473,0,0,0,43.141,41.7a2.421,2.421,0,0,1,.11,3.586l-3.133,3.137a2.368,2.368,0,0,1-3.514-.035,4.487,4.487,0,0,0-7.512,3.054,2.382,2.382,0,0,1-2.3,2.582l-4.743,0a2.384,2.384,0,0,1-2.3-2.585,4.342,4.342,0,0,0-2.676-3.856,4.348,4.348,0,0,0-4.853.813c-.8.767-2.184,1.223-3.081.349L5.8,45.494a2.77,2.77,0,0,1-.965-1.762A2.658,2.658,0,0,1,5.7,41.711a4.335,4.335,0,0,0,.724-4.778,4.314,4.314,0,0,0-3.779-2.651A2.418,2.418,0,0,1,0,31.917L.024,27.1A2.253,2.253,0,0,1,2.4,24.952c2.16,0,2.934-1.7,3.624-.6.527.84-1.638,1.984-3.828,2.023a.87.87,0,0,0-.758.829" transform="translate(0 -4.434)" fill="#19538d"/>
          <path id="Trazado_1275430" data-name="Trazado 1275430" d="M75.528,87.575a12.272,12.272,0,1,0,7.182-7.019.726.726,0,1,1-.484-1.346,13.679,13.679,0,1,1-8.031,7.9.775.775,0,0,1,.87-.527.7.7,0,0,1,.463.995" transform="translate(-62.528 -66.895)" fill="#19538d"/>
          <path id="Trazado_1275431" data-name="Trazado 1275431" d="M18.9,18.565,4.755,18.57a2.395,2.395,0,0,1-2.087-3.313L9.587,1.4A2.372,2.372,0,0,1,11.64,0a2.332,2.332,0,0,1,2.23,1.221l6.978,13.959A2.409,2.409,0,0,1,18.9,18.565m-.321-1.356a1.228,1.228,0,0,0,.962-.521,1.342,1.342,0,0,0,.024-.926L12.627,1.881a1.13,1.13,0,0,0-.9-.493,1.193,1.193,0,0,0-.841.581L4.053,15.638a1.247,1.247,0,0,0-.041,1.054,1.256,1.256,0,0,0,.9.518Z" transform="translate(-2.107 -0.001)" fill="#19538d"/>
          <path id="Trazado_1275432" data-name="Trazado 1275432" d="M127.371,133.017a.778.778,0,0,1-1.09.042l-6.229-5.951a3.537,3.537,0,0,1-.073-.676c.011-.18.394-.415.578-.416l3.116-.016-.056-7.332a1.277,1.277,0,0,1,1.2-1.326l3.821.01c.858,0,1.171.9,1.18,1.6l.087,7.05h3.016a.95.95,0,0,1,.654.314,1.376,1.376,0,0,1-.021.789Zm3.764-5.546-1.905-.064a.771.771,0,0,1-.744-.8l-.095-7.9h-3.41l.138,7.9a.769.769,0,0,1-.741.806l-1.86.072,4.292,4.121Z" transform="translate(-102.387 -100.133)" fill="#19538d"/>
          <path id="Trazado_1275433" data-name="Trazado 1275433" d="M62.636,36.4a.839.839,0,0,1-.5.8c-.278.092-.886-.134-.886-.473l-.008-7.307c0-.208.435-.493.641-.513.244-.024.737.254.738.546Z" transform="translate(-52.265 -24.671)" fill="#19538d"/>
          <path id="Trazado_1275434" data-name="Trazado 1275434" d="M61.156,93.641a1,1,0,1,1-1-1,1,1,0,0,1,1,1" transform="translate(-50.482 -79.053)" fill="#19538d"/>
        </g>
      </g>
    </g>
  </g>
</svg>
