<svg xmlns="http://www.w3.org/2000/svg" xmlns:xlink="http://www.w3.org/1999/xlink" width="115" height="115" viewBox="0 0 115 115">
  <defs>
    <clipPath id="clip-path">
      <rect id="Rectángulo_459963" data-name="Rectángulo 459963" width="71.498" height="15.319" fill="#19538d"/>
    </clipPath>
  </defs>
  <g id="Grupo_1211981" data-name="Grupo 1211981" transform="translate(-383.711 -8399.924)">
    <circle id="Elipse_13890" data-name="Elipse 13890" cx="57.5" cy="57.5" r="57.5" transform="translate(383.711 8399.924)" fill="#5a9ad7"/>
    <path id="Intersección_1" data-name="Intersección 1" d="M0,57.4A57.406,57.406,0,0,1,95.3,14.288L1.316,69.677A57.539,57.539,0,0,1,0,57.4Z" transform="translate(383.8 8400.053)" fill="#19538d"/>
    <path id="Trazado_1032916" data-name="Trazado 1032916" d="M47.945,0A47.945,47.945,0,1,1,0,47.945,47.945,47.945,0,0,1,47.945,0Z" transform="translate(393.258 8409.513)" fill="#e6f3ff"/>
    <g id="Grupo_1188343" data-name="Grupo 1188343" transform="translate(409.38 8425.594)">
      <rect id="Rectángulo_459838" data-name="Rectángulo 459838" width="63" height="63" transform="translate(4.33 0.33)" fill="none"/>
      <g id="Grupo_1211982" data-name="Grupo 1211982" transform="translate(0.33 24.331)">
        <rect id="Rectángulo_459962" data-name="Rectángulo 459962" width="19.463" height="15.319" transform="translate(0 0)" fill="#19538d"/>
        <path id="Trazado_1271764" data-name="Trazado 1271764" d="M77.063,15.971l-7.456-4.3V13.4H66.222v5.153h3.385v1.729Z" transform="translate(-46.084 -8.119)" fill="#19538d"/>
        <path id="Trazado_1271765" data-name="Trazado 1271765" d="M85.778,16.531v5.651l4.894-2.825Z" transform="translate(-59.692 -11.504)" fill="#19538d"/>
        <g id="Grupo_1208914" data-name="Grupo 1208914" transform="translate(0 0)">
          <g id="Grupo_1208913" data-name="Grupo 1208913" clip-path="url(#clip-path)">
            <path id="Trazado_1271766" data-name="Trazado 1271766" d="M85.778,0V3.622L91.28,6.8a1.217,1.217,0,0,1,0,2.107l-5.5,3.177v3.236h19.463V0Z" transform="translate(-59.693 0)" fill="#19538d"/>
            <path id="Trazado_1271767" data-name="Trazado 1271767" d="M162.4,15.971l-7.456-4.3V13.4h-3.385v5.153h3.385v1.729Z" transform="translate(-105.467 -8.119)" fill="#19538d"/>
            <path id="Trazado_1271768" data-name="Trazado 1271768" d="M171.111,16.531v5.651l4.894-2.825Z" transform="translate(-119.076 -11.504)" fill="#19538d"/>
            <path id="Trazado_1271769" data-name="Trazado 1271769" d="M171.111,0V3.622l5.5,3.177a1.217,1.217,0,0,1,0,2.107l-5.5,3.177v3.236h19.463V0Z" transform="translate(-119.076 0)" fill="#19538d"/>
          </g>
        </g>
      </g>
    </g>
  </g>
</svg>
