<svg xmlns="http://www.w3.org/2000/svg" xmlns:xlink="http://www.w3.org/1999/xlink" width="115" height="115" viewBox="0 0 115 115">
  <defs>
    <clipPath id="clip-path">
      <rect id="Rectángulo_459968" data-name="Rectángulo 459968" width="61.191" height="55.475" fill="#19538d"/>
    </clipPath>
  </defs>
  <g id="Grupo_1211983" data-name="Grupo 1211983" transform="translate(-383.711 -8399.924)">
    <circle id="Elipse_13890" data-name="Elipse 13890" cx="57.5" cy="57.5" r="57.5" transform="translate(383.711 8399.924)" fill="#5a9ad7"/>
    <path id="Intersección_1" data-name="Intersección 1" d="M0,57.4A57.406,57.406,0,0,1,95.3,14.288L1.316,69.677A57.539,57.539,0,0,1,0,57.4Z" transform="translate(383.8 8400.053)" fill="#19538d"/>
    <path id="Trazado_1032916" data-name="Trazado 1032916" d="M47.945,0A47.945,47.945,0,1,1,0,47.945,47.945,47.945,0,0,1,47.945,0Z" transform="translate(393.258 8409.513)" fill="#e6f3ff"/>
    <g id="Grupo_1188343" data-name="Grupo 1188343" transform="translate(409.38 8425.594)">
      <rect id="Rectángulo_459838" data-name="Rectángulo 459838" width="63" height="63" transform="translate(0.331 0.33)" fill="none"/>
      <g id="Grupo_1211984" data-name="Grupo 1211984" transform="translate(1.33 4.33)">
        <rect id="Rectángulo_459966" data-name="Rectángulo 459966" width="2.061" height="55.474" transform="translate(29.142 0.001)" fill="#19538d"/>
        <rect id="Rectángulo_459967" data-name="Rectángulo 459967" width="61.19" height="2.343" transform="translate(0 27.644)" fill="#19538d"/>
        <g id="Grupo_1208922" data-name="Grupo 1208922" transform="translate(0 0)">
          <g id="Grupo_1208921" data-name="Grupo 1208921" clip-path="url(#clip-path)">
            <path id="Trazado_1271785" data-name="Trazado 1271785" d="M30.732,48.448c-8.7,0-23.558-2.46-25.248-18.94a20.739,20.739,0,0,1,5.06-16.349c4.8-5.388,12.423-8.545,20.92-8.66,15.3-.2,25.3,8.867,27.509,24.894l-2.506.346C54.419,14.9,45.515,6.835,31.5,7.029c-7.789.105-14.738,2.953-19.065,7.812A18.267,18.267,0,0,0,8,29.249c1.413,13.777,13.14,16.669,22.73,16.669,4.545,0,10.759-1.392,14.57-5.3,2.665-2.733,3.958-6.44,3.843-11.019-.139-5.586-1.718-9.828-4.693-12.608-3.825-3.575-9.239-4.127-13.105-3.964A18.494,18.494,0,0,0,18.42,18.7a13.5,13.5,0,0,0-3.294,10.39c.288,3.745,1.622,6.564,3.962,8.377,4.441,3.441,11.166,2.295,11.234,2.282l.131-.023.134,0c.054,0,5.981.137,9.516-3.293a9.422,9.422,0,0,0,2.671-7.061c0-3.409-.986-6.072-2.93-7.916-3.429-3.252-8.806-3.006-8.854-3-.079,0-5.189.218-7.895,3.379a8.05,8.05,0,0,0-1.6,6.452,5.464,5.464,0,0,0,2.047,3.866c2.717,2.124,7.175,1.6,7.22,1.59l.159-.019.161.02a5.113,5.113,0,0,0,3.422-.929,4.678,4.678,0,0,0,1.529-3.365c.39-4.293-1.139-4.441-3.915-4.711-.329-.032-.658-.064-.979-.1a2.228,2.228,0,0,0-2.317,1.149c-.239.753.65,1.774,2.319,2.665l-1.191,2.232c-4.118-2.2-3.847-4.692-3.54-5.662a4.671,4.671,0,0,1,5.042-2.894c.3.037.6.067.91.1,2.711.263,6.808.661,6.189,7.458A7.075,7.075,0,0,1,36.069,34.8a7.61,7.61,0,0,1-5.139,1.469c-.918.094-5.666.433-8.935-2.113a7.974,7.974,0,0,1-3.013-5.565,10.458,10.458,0,0,1,2.2-8.414c3.443-4.007,9.441-4.239,9.7-4.247.229-.01,6.453-.32,10.688,3.68,2.479,2.34,3.735,5.627,3.735,9.767a11.854,11.854,0,0,1-3.451,8.89c-4.037,3.906-10.2,4.02-11.214,4-1.078.173-8.061,1.1-13.086-2.783-2.937-2.27-4.6-5.7-4.948-10.194a16.147,16.147,0,0,1,3.923-12.264A21.064,21.064,0,0,1,31.24,10.5c4.346-.186,10.474.471,14.939,4.644,3.49,3.262,5.338,8.1,5.5,14.394.132,5.287-1.4,9.61-4.562,12.85-5.488,5.626-13.926,6.064-16.382,6.064" transform="translate(-0.839 -0.704)" fill="#19538d"/>
          </g>
        </g>
      </g>
    </g>
  </g>
</svg>
