<svg xmlns="http://www.w3.org/2000/svg" xmlns:xlink="http://www.w3.org/1999/xlink" width="96" height="96" viewBox="0 0 96 96">
  <defs>
    <clipPath id="clip-path">
      <rect id="Rectángulo_461168" data-name="Rectángulo 461168" width="53.776" height="45.771" fill="#19538d"/>
    </clipPath>
  </defs>
  <g id="Grupo_1212006" data-name="Grupo 1212006" transform="translate(-383.67 -8399.924)">
    <circle id="Elipse_13890" data-name="Elipse 13890" cx="48" cy="48" r="48" transform="translate(383.67 8399.924)" fill="#5a9ad7"/>
    <path id="Intersección_1" data-name="Intersección 1" d="M0,47.89A47.893,47.893,0,0,1,79.511,11.92L1.1,58.131A48,48,0,0,1,0,47.89Z" transform="translate(383.779 8400.031)" fill="#19538d"/>
    <path id="Trazado_1032916" data-name="Trazado 1032916" d="M40,0A40,40,0,1,1,0,40,40,40,0,0,1,40,0Z" transform="translate(391.67 8407.924)" fill="#e6f3ff"/>
    <g id="Grupo_1188343" data-name="Grupo 1188343" transform="translate(406.126 8422.38)">
      <rect id="Rectángulo_459838" data-name="Rectángulo 459838" width="52" height="52" transform="translate(0.544 -0.456)" fill="none"/>
      <g id="Grupo_1212007" data-name="Grupo 1212007" transform="translate(-0.456 2.544)">
        <g id="Grupo_1211836" data-name="Grupo 1211836" clip-path="url(#clip-path)">
          <path id="Trazado_1275389" data-name="Trazado 1275389" d="M51.752,41.065l-8.368.008a3.966,3.966,0,0,1-3.938,4.7l-26.776,0a.866.866,0,0,1-.884-.728.787.787,0,0,1,.885-.822H39.443a2.439,2.439,0,0,0,1.887-.885,2.747,2.747,0,0,0,.436-2.268H15.307a2.025,2.025,0,0,1-2.082-2.1l.006-8.482a2,2,0,0,1,1.9-2L41.8,28.479l.026-2.859-26.538,0a2.016,2.016,0,0,1-2.06-2.055v-8.5c0-.755.653-1.983,1.608-1.984l26.991-.024L41.8,9.872H1.593l-.005,3.694a.784.784,0,1,1-1.567-.025L.062,3.531A3.669,3.669,0,0,1,3.436.024L39.758,0a3.811,3.811,0,0,1,3.652,3.841l.012,9.216,2.392-.015a.844.844,0,0,1,.839.746.86.86,0,0,1-.9.829l-30.939,0-.034,8.95c0,.19.288.448.523.5H51.609a1.177,1.177,0,0,0,.631-.386l-.019-9-2.758-.1a.983.983,0,0,1-.718-.692.839.839,0,0,1,.7-.841l2.378,0a1.965,1.965,0,0,1,1.958,1.9l0,8.736a2.009,2.009,0,0,1-2.128,1.935l-8.217-.008-.018,2.855,8.538.024a2,2,0,0,1,1.836,1.994l.009,8.486a2.052,2.052,0,0,1-2.042,2.09M41.81,8.309l.023-4.476a2.31,2.31,0,0,0-2.248-2.3H3.9A2.327,2.327,0,0,0,1.6,3.874L1.59,8.311ZM52.233,30.052H14.784v9.441H52.233Z" transform="translate(-0.018 0)" fill="#19538d"/>
          <path id="Trazado_1275390" data-name="Trazado 1275390" d="M8.727,134.893a.847.847,0,0,1,.936.71.9.9,0,0,1-.708.832L4,136.443a3.935,3.935,0,0,1-4-3.608l0-24.749a.85.85,0,0,1,.723-.893c.519-.059.846.3.846.893l0,24.452a2.338,2.338,0,0,0,2.271,2.337Z" transform="translate(0 -90.671)" fill="#19538d"/>
          <path id="Trazado_1275391" data-name="Trazado 1275391" d="M232.445,134.284l-10.225,0a.894.894,0,0,1-.876-.7.788.788,0,0,1,.868-.865H232.39a.852.852,0,0,1,.862.742.835.835,0,0,1-.806.82" transform="translate(-187.239 -112.273)" fill="#19538d"/>
          <path id="Trazado_1275392" data-name="Trazado 1275392" d="M164.4,109.557h-9.876a.8.8,0,1,1,.011-1.6H164.4a.86.86,0,0,1,.835.684.814.814,0,0,1-.826.914" transform="translate(-130.038 -91.325)" fill="#19538d"/>
          <path id="Trazado_1275393" data-name="Trazado 1275393" d="M284.89,109.552l-4.905-.015c-.3,0-.678-.482-.7-.766a.912.912,0,0,1,.73-.816l4.949-.011a.968.968,0,0,1,.767.714.833.833,0,0,1-.842.894" transform="translate(-236.253 -91.312)" fill="#19538d"/>
          <path id="Trazado_1275394" data-name="Trazado 1275394" d="M186.7,134.266l-3.053,0a.823.823,0,0,1-.771-.837c.038-.486.42-.726.923-.726h2.826a.912.912,0,0,1,.833.724.889.889,0,0,1-.757.838" transform="translate(-154.701 -112.257)" fill="#19538d"/>
          <path id="Trazado_1275395" data-name="Trazado 1275395" d="M244.105,109.55l-3.1-.018c-.342,0-.718-.561-.679-.874a.909.909,0,0,1,.85-.716l2.985.007a1,1,0,0,1,.733.707.89.89,0,0,1-.793.894" transform="translate(-203.299 -91.311)" fill="#19538d"/>
          <path id="Trazado_1275396" data-name="Trazado 1275396" d="M32.26,145.715l-1.87.019c-.3,0-.7-.51-.688-.783a.922.922,0,0,1,.786-.806l1.7.03c.262,0,.621.418.674.651.061.269-.3.886-.6.889" transform="translate(-25.126 -121.935)" fill="#19538d"/>
          <path id="Trazado_1275397" data-name="Trazado 1275397" d="M32.269,194.9l-1.906.022c-.3,0-.691-.524-.687-.793s.4-.778.679-.777l1.814,0c.248,0,.609.412.667.642.065.259-.3.9-.566.9" transform="translate(-25.104 -163.564)" fill="#19538d"/>
          <path id="Trazado_1275398" data-name="Trazado 1275398" d="M32.184,121.317l-1.635.013a1.044,1.044,0,0,1-.73-.569c-.092-.281.142-.935.456-.957a15.1,15.1,0,0,1,2.163,0c.266.019.534.592.5.828a.959.959,0,0,1-.754.686" transform="translate(-25.207 -101.312)" fill="#19538d"/>
          <path id="Trazado_1275399" data-name="Trazado 1275399" d="M155.5,133.86c-1.066.323-2.608.289-2.729-.564-.138-.969,1.353-1.068,2.737-.763.5.11.551,1.158-.008,1.327" transform="translate(-129.225 -111.983)" fill="#19538d"/>
          <path id="Trazado_1275400" data-name="Trazado 1275400" d="M119.6,109.549l-1.857.046c-.269.007-.69-.49-.707-.765a.912.912,0,0,1,.732-.833l1.753,0c.255,0,.647.462.7.713s-.314.828-.618.836" transform="translate(-99 -91.357)" fill="#19538d"/>
          <path id="Trazado_1275401" data-name="Trazado 1275401" d="M119.5,134.287l-1.873-.022c-.285,0-.634-.551-.609-.813a.915.915,0,0,1,.726-.72l1.778,0c.262,0,.661.466.677.722.018.306-.377.832-.7.828" transform="translate(-98.988 -112.282)" fill="#19538d"/>
          <path id="Trazado_1275402" data-name="Trazado 1275402" d="M32.092,96.48l-1.783-.022c-.253,0-.619-.484-.622-.727s.3-.765.546-.792c1.4-.151,2.652-.177,2.617.8a.9.9,0,0,1-.759.741" transform="translate(-25.114 -80.245)" fill="#19538d"/>
          <path id="Trazado_1275403" data-name="Trazado 1275403" d="M32.178,170.231l-1.736-.012c-.222,0-.557-.357-.619-.56-.071-.231.119-.867.361-.9,1.506-.205,2.863-.208,2.759.772a.889.889,0,0,1-.765.7" transform="translate(-25.215 -142.665)" fill="#19538d"/>
          <path id="Trazado_1275404" data-name="Trazado 1275404" d="M32.355,219.384h-2.12c-.273,0-.54-.582-.5-.823a.9.9,0,0,1,.773-.7l1.6,0a1.1,1.1,0,0,1,.754.579c.1.255-.2.951-.5.951" transform="translate(-25.148 -184.288)" fill="#19538d"/>
          <path id="Trazado_1275405" data-name="Trazado 1275405" d="M32.376,243.924c-1.435.246-2.706.168-2.678-.753a.915.915,0,0,1,.765-.741l1.657-.008a1.043,1.043,0,0,1,.728.613c.061.239-.209.844-.472.889" transform="translate(-25.122 -205.071)" fill="#19538d"/>
          <path id="Trazado_1275406" data-name="Trazado 1275406" d="M312.614,133.428a.78.78,0,1,1-.78-.78.78.78,0,0,1,.78.78" transform="translate(-263.127 -112.21)" fill="#19538d"/>
          <path id="Trazado_1275407" data-name="Trazado 1275407" d="M145.555,208.1a.869.869,0,0,1-1.048.667.819.819,0,0,1-.5-1.045l2.229-6.107c.105-.289.743-.432.992-.333a.917.917,0,0,1,.444.979Z" transform="translate(-121.781 -170.24)" fill="#19538d"/>
          <path id="Trazado_1275408" data-name="Trazado 1275408" d="M174.17,212.153a.921.921,0,0,1-1.153.1.867.867,0,0,1-.02-1.2l1.352-1.358-1.451-1.459a.915.915,0,0,1,.12-1.1.927.927,0,0,1,1.071.072L175.882,209a.893.893,0,0,1,.107,1.326Z" transform="translate(-146.146 -175.106)" fill="#19538d"/>
          <path id="Trazado_1275409" data-name="Trazado 1275409" d="M121.3,211.012a.847.847,0,0,1,0,1.094.82.82,0,0,1-1.167-.045l-1.788-1.8a.875.875,0,0,1-.132-1.162l2.028-2.028a.8.8,0,0,1,1.12.116.887.887,0,0,1-.089,1.058l-1.375,1.359Z" transform="translate(-99.851 -175.02)" fill="#19538d"/>
          <path id="Trazado_1275410" data-name="Trazado 1275410" d="M105.432,28.295l-18.988,0c-.448,0-.688-.511-.662-.855a.85.85,0,0,1,.82-.721h18.769a.926.926,0,0,1,.755.73.857.857,0,0,1-.693.849" transform="translate(-72.564 -22.599)" fill="#19538d"/>
          <path id="Trazado_1275411" data-name="Trazado 1275411" d="M229.837,28.25l-3.55.012c-.352,0-.664-.529-.63-.853a.85.85,0,0,1,.788-.723l3.158-.008a1.038,1.038,0,0,1,.822.632c.1.271-.216.939-.587.94" transform="translate(-190.887 -22.568)" fill="#19538d"/>
          <path id="Trazado_1275412" data-name="Trazado 1275412" d="M31.293,27.616a.784.784,0,1,1-.784-.784.784.784,0,0,1,.784.784" transform="translate(-25.145 -22.698)" fill="#19538d"/>
          <path id="Trazado_1275413" data-name="Trazado 1275413" d="M48.7,27.664a.779.779,0,1,1-.779-.779.779.779,0,0,1,.779.779" transform="translate(-39.882 -22.743)" fill="#19538d"/>
          <path id="Trazado_1275414" data-name="Trazado 1275414" d="M65.99,27.589a.783.783,0,1,1-.783-.783.783.783,0,0,1,.783.783" transform="translate(-54.498 -22.676)" fill="#19538d"/>
        </g>
      </g>
    </g>
  </g>
</svg>
