<svg xmlns="http://www.w3.org/2000/svg" xmlns:xlink="http://www.w3.org/1999/xlink" width="96" height="96" viewBox="0 0 96 96">
  <defs>
    <clipPath id="clip-path">
      <rect id="Rectángulo_461169" data-name="Rectángulo 461169" width="51.381" height="44.931" fill="#19538d"/>
    </clipPath>
  </defs>
  <g id="Grupo_1212008" data-name="Grupo 1212008" transform="translate(-383.67 -8399.924)">
    <circle id="Elipse_13890" data-name="Elipse 13890" cx="48" cy="48" r="48" transform="translate(383.67 8399.924)" fill="#5a9ad7"/>
    <path id="Intersección_1" data-name="Intersección 1" d="M0,47.89A47.893,47.893,0,0,1,79.511,11.92L1.1,58.131A48,48,0,0,1,0,47.89Z" transform="translate(383.779 8400.031)" fill="#19538d"/>
    <path id="Trazado_1032916" data-name="Trazado 1032916" d="M40,0A40,40,0,1,1,0,40,40,40,0,0,1,40,0Z" transform="translate(391.67 8407.924)" fill="#e6f3ff"/>
    <g id="Grupo_1188343" data-name="Grupo 1188343" transform="translate(406.126 8422.38)">
      <rect id="Rectángulo_459838" data-name="Rectángulo 459838" width="52" height="52" transform="translate(0.544 -0.456)" fill="none"/>
      <g id="Grupo_1212009" data-name="Grupo 1212009" transform="translate(0.243 -0.794)">
        <g id="Grupo_1099618" data-name="Grupo 1099618" transform="translate(0.302 0.338)">
          <rect id="Rectángulo_401104" data-name="Rectángulo 401104" width="51.381" height="52" transform="translate(0)" fill="none"/>
        </g>
        <g id="Grupo_1211839" data-name="Grupo 1211839" transform="translate(0.301 3.985)">
          <g id="Grupo_1211838" data-name="Grupo 1211838" clip-path="url(#clip-path)">
            <path id="Trazado_1275415" data-name="Trazado 1275415" d="M41.637,44.058a.824.824,0,0,1-.848.872l-32.466,0a.87.87,0,0,1-.664-.653,18.408,18.408,0,0,1,.093-3.318,3.662,3.662,0,0,1,3.268-2.635l5.292-.012V34.149l-11.8-.009A4.5,4.5,0,0,1,0,29.516L.018,4.347A4.388,4.388,0,0,1,4.208.024L45.055,0a4.4,4.4,0,0,1,4.178,4.207l.047,16.315A9.663,9.663,0,0,1,35.764,34.142l-2.835,0v4.166l5.167.031a3.567,3.567,0,0,1,3.458,2.726,20.866,20.866,0,0,1,.084,2.989M4.459,3.074H44.885a1.278,1.278,0,0,1,1.32,1.3l0,13.57L47.6,18.8l.009-14.181a2.8,2.8,0,0,0-2.724-2.957L4.524,1.654A2.817,2.817,0,0,0,1.66,4.492V29.651a2.849,2.849,0,0,0,2.856,2.838l29.53,0a10.547,10.547,0,0,1-1.9-4.491l-28.227,0a.9.9,0,0,1-.846-.907l0-22.753A1.266,1.266,0,0,1,4.459,3.074M44.55,17.249l0-12.507-39.819,0v21.6l27.312-.006A9.6,9.6,0,0,1,35.886,18.8a9.823,9.823,0,0,1,8.664-1.556m5.167,9.275a8.01,8.01,0,1,0-8.01,8.01,8.01,8.01,0,0,0,8.01-8.01M17.981,38.331h13.3V34.146h-13.3Zm21.963,4.947a7.563,7.563,0,0,0-.022-1.934,2,2,0,0,0-2.02-1.373l-26.547,0a2.072,2.072,0,0,0-1.917,1.159,5.5,5.5,0,0,0-.077,2.149Z" transform="translate(0 0.001)" fill="#19538d"/>
            <path id="Trazado_1275416" data-name="Trazado 1275416" d="M109.819,56.531c-.086.551-.383.971-.933.972l-2.317,0a1.028,1.028,0,0,1-.872-.772l-.286-1.989-.925-.433-1.494,1.111a1.021,1.021,0,0,1-1.331.026l-1.694-1.705a1.012,1.012,0,0,1-.1-.995l1.249-1.691-.324-.968-2.124-.346a.925.925,0,0,1-.671-.76l0-2.43a.888.888,0,0,1,.742-.865l1.985-.3.421-.952-1.25-1.7a.933.933,0,0,1,.122-1.084L101.67,40c.176-.175.736-.358.921-.227l1.668,1.18a1.066,1.066,0,0,0,.865-.071c.613-.386.236-1.673.862-2.868l3.189-.035c.183,0,.532.4.563.576l.361,2.028c.047.265.8.594,1.028.433L112.7,39.9a.938.938,0,0,1,.991-.007l1.889,1.9a1.1,1.1,0,0,1-.015.982l-1.219,1.669.408.96,2.009.281a.961.961,0,0,1,.752.844L117.509,49a1.06,1.06,0,0,1-.7.75l-2.082.347-.375.932,1.145,1.539a1.032,1.032,0,0,1-.059,1.282l-1.531,1.533a1.028,1.028,0,0,1-1.428.025l-1.493-1.1-.894.465ZM108.5,54.073c.078-.543.447-.714.905-.9l1.762-.724,1.851,1.276a1.2,1.2,0,0,0,.721-.716l-1.278-1.8,1.041-2.576,2.292-.393.063-.985-2.368-.441-1.033-2.524,1.306-1.875a1.321,1.321,0,0,0-.712-.7,16.793,16.793,0,0,1-1.8,1.2c-.317.167-1.076-.366-1.418-.489-.317-.113-1.137-.283-1.2-.617l-.4-2.1-.971-.018-.472,2.3L104.3,43.011l-1.96-1.365-.656.746,1.346,1.876L101.982,46.8l-2.3.446-.032.962,2.312.409,1.071,2.514L101.762,53c-.054.285.543.831.771.672.637-.445,1.307-.909,1.848-1.214l2.387.995a17.085,17.085,0,0,1,.473,2.349l1.012.025Z" transform="translate(-83.104 -32.212)" fill="#19538d"/>
            <path id="Trazado_1275417" data-name="Trazado 1275417" d="M233.019,156.214l-3.41-3.371a1.873,1.873,0,0,1-.21-2.583,1.853,1.853,0,0,1,2.668-.185l2.036,2.006,4.659-4.672a1.862,1.862,0,0,1,2.459-.032,1.812,1.812,0,0,1,.269,2.474l-6.159,6.285a1.8,1.8,0,0,1-2.311.079m-2.2-5.033-.22.309,3.5,3.5,6.126-6.173-.252-.311-5.345,5.422a.917.917,0,0,1-.953.033Z" transform="translate(-194.188 -124.605)" fill="#19538d"/>
            <path id="Trazado_1275418" data-name="Trazado 1275418" d="M142.041,77.592a4.391,4.391,0,1,1-4.391-4.391,4.391,4.391,0,0,1,4.391,4.391m-1.657,0a2.733,2.733,0,1,0-2.732,2.732,2.732,2.732,0,0,0,2.732-2.732" transform="translate(-113.012 -62.08)" fill="#19538d"/>
          </g>
        </g>
      </g>
    </g>
  </g>
</svg>
