<svg xmlns="http://www.w3.org/2000/svg" xmlns:xlink="http://www.w3.org/1999/xlink" width="128" height="128" viewBox="0 0 128 128">
  <defs>
    <clipPath id="clip-path">
      <rect id="Rectángulo_461194" data-name="Rectángulo 461194" width="66.683" height="66.689" fill="#19538d"/>
    </clipPath>
  </defs>
  <g id="Grupo_1212019" data-name="Grupo 1212019" transform="translate(-383.746 -8400)">
    <circle id="Elipse_13890" data-name="Elipse 13890" cx="64" cy="64" r="64" transform="translate(383.746 8400)" fill="#5a9ad7"/>
    <path id="Intersección_1" data-name="Intersección 1" d="M23204.689,11774.869a64,64,0,0,1,106.254-48.067l-104.787,61.753A64.213,64.213,0,0,1,23204.689,11774.869Z" transform="translate(-22820.941 -3310.872)" fill="#19538d"/>
    <circle id="Elipse_13891" data-name="Elipse 13891" cx="54" cy="54" r="54" transform="translate(393.746 8410)" fill="#fff"/>
    <g id="Grupo_1212020" data-name="Grupo 1212020" transform="translate(416.279 8430.656)">
      <g id="Grupo_1099618" data-name="Grupo 1099618" transform="translate(0.467 -0.657)">
        <rect id="Rectángulo_401104" data-name="Rectángulo 401104" width="68.18" height="69.001" transform="translate(0)" fill="none"/>
      </g>
      <g id="Grupo_1211867" data-name="Grupo 1211867" transform="translate(1.467 0.344)">
        <g id="Grupo_1211866" data-name="Grupo 1211866" clip-path="url(#clip-path)">
          <path id="Trazado_1275448" data-name="Trazado 1275448" d="M44.357,41.1l-19.72,9.846a12.528,12.528,0,1,1-13.155-9.254V25.007A12.524,12.524,0,1,1,24,17.525l18.95,10.259A12.52,12.52,0,1,1,44.357,41.1M20.963,18.574A10.359,10.359,0,0,0,19.452,4.713a10.429,10.429,0,0,0-15.388,13.9,9.3,9.3,0,0,1,16.9-.035m-1.546,1.715a7.229,7.229,0,0,0-7.087-5.024,7.146,7.146,0,0,0-6.689,5.066,10.283,10.283,0,0,0,13.776-.042m4.521,28.7L43.2,39.352a12.409,12.409,0,0,1-1.024-9.618L23,19.368A12.593,12.593,0,0,1,13.576,25l.016,16.7a12.567,12.567,0,0,1,10.345,7.282m38.677-9.573a10.417,10.417,0,1,0-16.9.007,9.3,9.3,0,0,1,16.9-.007m-1.55,1.714a7.224,7.224,0,0,0-13.775.027,10.3,10.3,0,0,0,13.775-.027M20.983,60.231a10.425,10.425,0,1,0-16.916.026,9.311,9.311,0,0,1,16.916-.026m-1.572,1.715a7.219,7.219,0,0,0-13.768.037,10.3,10.3,0,0,0,13.768-.037" transform="translate(0 0)" fill="#19538d"/>
          <path id="Trazado_1275449" data-name="Trazado 1275449" d="M51.734,243.125a4.262,4.262,0,1,1-4.262-4.262,4.262,4.262,0,0,1,4.262,4.262m-2.092,0a2.172,2.172,0,1,0-2.171,2.171,2.171,2.171,0,0,0,2.171-2.171" transform="translate(-34.952 -193.217)" fill="#19538d"/>
          <path id="Trazado_1275450" data-name="Trazado 1275450" d="M51.741,25.154a4.262,4.262,0,1,1-4.262-4.262,4.262,4.262,0,0,1,4.262,4.262m-2.093,0a2.172,2.172,0,1,0-2.172,2.172,2.172,2.172,0,0,0,2.172-2.172" transform="translate(-34.958 -16.9)" fill="#19538d"/>
          <path id="Trazado_1275451" data-name="Trazado 1275451" d="M269.68,134.138a4.263,4.263,0,1,1-4.263-4.263,4.263,4.263,0,0,1,4.263,4.263m-2.09,0a2.173,2.173,0,1,0-2.173,2.173,2.173,2.173,0,0,0,2.173-2.173" transform="translate(-211.248 -105.056)" fill="#19538d"/>
        </g>
      </g>
    </g>
  </g>
</svg>
