<svg xmlns="http://www.w3.org/2000/svg" xmlns:xlink="http://www.w3.org/1999/xlink" width="128" height="128" viewBox="0 0 128 128">
  <defs>
    <clipPath id="clip-path">
      <rect id="Rectángulo_461164" data-name="Rectángulo 461164" width="63.491" height="63.5" fill="#19538d"/>
    </clipPath>
  </defs>
  <g id="Grupo_1211993" data-name="Grupo 1211993" transform="translate(-383.746 -8400)">
    <circle id="Elipse_13890" data-name="Elipse 13890" cx="64" cy="64" r="64" transform="translate(383.746 8400)" fill="#5a9ad7"/>
    <path id="Intersección_1" data-name="Intersección 1" d="M23204.689,11774.869a64,64,0,0,1,106.254-48.067l-104.787,61.753A64.213,64.213,0,0,1,23204.689,11774.869Z" transform="translate(-22820.941 -3310.872)" fill="#19538d"/>
    <circle id="Elipse_13891" data-name="Elipse 13891" cx="54" cy="54" r="54" transform="translate(393.746 8410)" fill="#fff"/>
    <g id="Grupo_1211989" data-name="Grupo 1211989" transform="translate(324.401 8430.07)">
      <g id="Grupo_1099618" data-name="Grupo 1099618" transform="translate(89.255 0.93)">
        <rect id="Rectángulo_401104" data-name="Rectángulo 401104" width="68.18" height="69.001" transform="translate(0)" fill="none"/>
      </g>
      <g id="Grupo_1211994" data-name="Grupo 1211994" transform="translate(89 1)">
        <g id="Grupo_1099618-2" data-name="Grupo 1099618" transform="translate(0.255 -0.07)">
          <rect id="Rectángulo_401104-2" data-name="Rectángulo 401104" width="68.18" height="69.001" transform="translate(0)" fill="none"/>
        </g>
        <g id="Grupo_1211822" data-name="Grupo 1211822" transform="translate(2.255 2.93)">
          <g id="Grupo_1211821" data-name="Grupo 1211821" clip-path="url(#clip-path)">
            <path id="Trazado_1275351" data-name="Trazado 1275351" d="M49.465,56.667a1.717,1.717,0,0,1-.845.656,1.48,1.48,0,0,1-1.188-.395l-3.7-5.882-3.069.514a5.567,5.567,0,0,0-4.945,5.414l-.036,4.018,7.91.03c.611,0,1.075.841,1.034,1.286A1.307,1.307,0,0,1,43.292,63.5H34.563a1.244,1.244,0,0,1-1.317-1.279l.037-5.661a7.608,7.608,0,0,1,6.157-7.251l3.245-.61a1.624,1.624,0,0,0,1.474-1.551A8.489,8.489,0,0,1,39.925,39.8l0-4.794a8.263,8.263,0,0,1,2.4-5.814L37.5,24.344l-11.514,0L21.151,29.17a8.608,8.608,0,0,1,2.423,6.138l-.03,4.638a8.388,8.388,0,0,1-4.237,7.205,1.6,1.6,0,0,0,1.347,1.516l2.48.433c3.776.66,7.045,3.507,7.069,7.475l.034,5.642A1.24,1.24,0,0,1,28.9,63.5H1.29A1.29,1.29,0,0,1,0,62.228l.026-5.472A7.906,7.906,0,0,1,6.788,49.17L9.7,48.642a1.492,1.492,0,0,0,1.2-1.5A8.3,8.3,0,0,1,6.755,40.4c-.059-1.984-.055-3.861-.01-5.842a8.246,8.246,0,0,1,4.006-6.691,8.442,8.442,0,0,1,8.367-.233l-.01-3.335c-4.152.444-8.157-2.361-8.355-6.649-.168-3.633-.1-7.092-.036-10.748A7.1,7.1,0,0,1,17.6.034L20.578,0a1.285,1.285,0,0,1,1.244,1.184,1.271,1.271,0,0,1-1.147,1.3l-3.41.1a4.519,4.519,0,0,0-4.1,4.528l-.011,9.968A4.762,4.762,0,0,0,17.814,21.8l2.54.053a1.3,1.3,0,0,1,1.272,1.42l.055,1.858,3.344-3.293H38.461l3.361,3.318.052-2.045a1.307,1.307,0,0,1,1.418-1.279l2.545-.042a4.691,4.691,0,0,0,4.5-4.714L50.321,7.1a4.579,4.579,0,0,0-4.285-4.532L31.727,2.5a1.3,1.3,0,0,1-1.186-1.3A1.252,1.252,0,0,1,31.833.007L45.859.044a7.091,7.091,0,0,1,6.907,6.847c.065,3.678.132,7.116-.034,10.758-.2,4.285-4.2,7.09-8.354,6.648l-.011,3.333a8.432,8.432,0,0,1,8.254.166,8.1,8.1,0,0,1,4.118,6.759L56.732,40.4a8.184,8.184,0,0,1-4.143,6.746,1.508,1.508,0,0,0,1.345,1.535l2.606.458a8.036,8.036,0,0,1,6.931,7.8l.018,5.291A1.311,1.311,0,0,1,62.22,63.5l-9.1,0a1.247,1.247,0,1,1-.153-2.489L61,61l-.033-4.261A5.078,5.078,0,0,0,57,51.8l-4.025-.764ZM16.537,33.205A1.333,1.333,0,0,1,18.3,33l2.685,1.511a5.829,5.829,0,0,0-6.589-5.333,5.976,5.976,0,0,0-5.2,6.38l2.642-.031a6.571,6.571,0,0,0,4.705-2.324m33.232.006a1.3,1.3,0,0,1,1.556-.318l2.927,1.654a5.882,5.882,0,0,0-6.457-5.384,5.993,5.993,0,0,0-5.387,6.4l2.531-.023a6.583,6.583,0,0,0,4.83-2.324M9.345,41.146a5.9,5.9,0,0,0,6.3,4.61,5.778,5.778,0,0,0,5.393-5.409L21.1,37.5l-3.409-1.954a8.811,8.811,0,0,1-6.046,2.466l-2.479.033a13.482,13.482,0,0,0,.178,3.1m33.1-.866A5.929,5.929,0,0,0,54.286,40.1l.047-2.586L50.96,35.545A8.92,8.92,0,0,1,45.122,38l-2.753.041ZM15.132,53.734l2.544-4.061-.818-1.56a17.714,17.714,0,0,1-3.528.048l-.751,1.517ZM50.918,49.64l-.776-1.476a19.743,19.743,0,0,1-3.538-.042l-.792,1.554,2.545,4.061Zm-28.162,1.9-3.01-.5L16.17,56.764a1.488,1.488,0,0,1-1.149.58,1.663,1.663,0,0,1-.963-.616L10.51,51.039l-4.025.766A5.148,5.148,0,0,0,2.5,56.923L2.5,61l25.291,0-.026-4.028a5.578,5.578,0,0,0-5.011-5.431" transform="translate(0 0)" fill="#19538d"/>
            <path id="Trazado_1275352" data-name="Trazado 1275352" d="M139.848,27.106a5.2,5.2,0,1,0,3.8,8.871,1.264,1.264,0,0,1,1.645-.046,1.243,1.243,0,0,1,.17,1.706,7.677,7.677,0,1,1-5.8-12.989c.8-.023,1.387.336,1.48,1.065a1.221,1.221,0,0,1-1.294,1.394" transform="translate(-108.189 -20.163)" fill="#19538d"/>
            <path id="Trazado_1275353" data-name="Trazado 1275353" d="M159.356,48.421l-2.606-2.6a1.232,1.232,0,1,1,1.831-1.65l1.595,1.585,4.226-4.228a1.267,1.267,0,0,1,1.7-.069,1.244,1.244,0,0,1,.029,1.815l-5.1,5.1a1.211,1.211,0,0,1-1.682.05" transform="translate(-127.975 -33.675)" fill="#19538d"/>
            <path id="Trazado_1275354" data-name="Trazado 1275354" d="M140.05,1.3A1.225,1.225,0,1,1,138.825.077,1.225,1.225,0,0,1,140.05,1.3" transform="translate(-112.569 -0.063)" fill="#19538d"/>
            <path id="Trazado_1275355" data-name="Trazado 1275355" d="M261.568,336.663a1.222,1.222,0,1,1-1.222-1.222,1.222,1.222,0,0,1,1.222,1.222" transform="translate(-211.985 -274.418)" fill="#19538d"/>
            <path id="Trazado_1275356" data-name="Trazado 1275356" d="M277.575,211.7a1.226,1.226,0,1,1-1.226-1.226,1.226,1.226,0,0,1,1.226,1.226" transform="translate(-225.074 -172.189)" fill="#19538d"/>
            <path id="Trazado_1275357" data-name="Trazado 1275357" d="M245.467,211.741a1.223,1.223,0,1,1-1.223-1.223,1.223,1.223,0,0,1,1.223,1.223" transform="translate(-198.811 -172.221)" fill="#19538d"/>
            <path id="Trazado_1275358" data-name="Trazado 1275358" d="M62.832,211.715a1.225,1.225,0,1,1-1.225-1.225,1.225,1.225,0,0,1,1.225,1.225" transform="translate(-49.397 -172.198)" fill="#19538d"/>
            <path id="Trazado_1275359" data-name="Trazado 1275359" d="M94.949,211.732a1.224,1.224,0,1,1-1.224-1.224,1.224,1.224,0,0,1,1.224,1.224" transform="translate(-75.673 -172.213)" fill="#19538d"/>
          </g>
        </g>
      </g>
    </g>
  </g>
</svg>
