<svg xmlns="http://www.w3.org/2000/svg" xmlns:xlink="http://www.w3.org/1999/xlink" width="96" height="96" viewBox="0 0 96 96">
  <defs>
    <clipPath id="clip-path">
      <rect id="Rectángulo_461201" data-name="Rectángulo 461201" width="53" height="48.212" fill="#19538d"/>
    </clipPath>
  </defs>
  <g id="Grupo_1212043" data-name="Grupo 1212043" transform="translate(-383.67 -8399.924)">
    <circle id="Elipse_13890" data-name="Elipse 13890" cx="48" cy="48" r="48" transform="translate(383.67 8399.924)" fill="#5a9ad7"/>
    <path id="Intersección_1" data-name="Intersección 1" d="M0,47.89A47.893,47.893,0,0,1,79.511,11.92L1.1,58.131A48,48,0,0,1,0,47.89Z" transform="translate(383.779 8400.031)" fill="#19538d"/>
    <path id="Trazado_1032916" data-name="Trazado 1032916" d="M40,0A40,40,0,1,1,0,40,40,40,0,0,1,40,0Z" transform="translate(391.67 8407.924)" fill="#e6f3ff"/>
    <g id="Grupo_1188343" data-name="Grupo 1188343" transform="translate(406.837 8422.38)">
      <rect id="Rectángulo_459838" data-name="Rectángulo 459838" width="52" height="52" transform="translate(-0.167 -0.456)" fill="none"/>
      <g id="Grupo_1212044" data-name="Grupo 1212044" transform="translate(-1.167 1.543)">
        <g id="Grupo_1211891" data-name="Grupo 1211891" clip-path="url(#clip-path)">
          <path id="Trazado_1275468" data-name="Trazado 1275468" d="M18.632,46.654l21.216,0,.01-9.239-.912-.951c-.994-1.036.234-1.861.248-2.425a.591.591,0,0,0-.462-.406,1.313,1.313,0,0,1-1.488-1.243V30.6c0-1.471,1.784-1.085,1.913-1.531.207-.712-.986-.971-.434-2.252L35.666,25.5l-.029,6.061L29.976,43.542a1.107,1.107,0,0,1-.617.532,1.029,1.029,0,0,1-.818-.416L22.807,31.5l0-6-7.547,3.176A2.351,2.351,0,0,0,13.691,30.9l0,8.957a.973.973,0,0,1-.57.779c-.261.095-.933-.171-.937-.451l-.033-2.407L1.831,37.768A1.81,1.81,0,0,1,0,35.884L0,5.691A1.772,1.772,0,0,1,1.8,3.953l2.635-.013a.97.97,0,0,1,.9.582c.085.26-.214.935-.515.944l-3.283.1V36.195l10.609.013.007-4.062-.967.006a.941.941,0,0,1-.8-.75.884.884,0,0,1,.65-.806l1.114-.017a4.066,4.066,0,0,1,2.644-3.431l-3.573-.022a.831.831,0,0,1-.828-.734.815.815,0,0,1,.855-.8l7.308-.029c1.408-.466,2.9-1.184,4.267-1.756a3.736,3.736,0,0,1,1-1.538,4.46,4.46,0,0,1-1.615-3.848,3.717,3.717,0,0,1-3.133-1.233H11.271a.879.879,0,0,1-.887-.8.805.805,0,0,1,.885-.784l6.987,0a4.063,4.063,0,0,1,.723-3.438l-7.733.018a.915.915,0,0,1-.85-.686.8.8,0,0,1,.746-.9l8.21,0-.007-5.08L8.355,5.522a.865.865,0,0,1-.941-.691c-.059-.591.354-.883.945-.883l11.06,0c-.414-1.9.594-3.685,2.463-3.86,1.532-.144,2.968-.2,3.035.653a.825.825,0,0,1-.732.851L22.2,1.605a1.255,1.255,0,0,0-1.28,1.32l0,8.009,1.349-.189a2.691,2.691,0,0,1,2.351-3.508c3.154-.066,6.237-.09,9.372.021,1.761.062,2.579,2.02,2.26,3.519l1.275.17c.009-1.38.06-2.862-.02-4.374A5.382,5.382,0,0,0,32.085,1.6H27.778a.836.836,0,0,1-.8-.715c-.034-.33.267-.836.65-.834l4.886.026a6.863,6.863,0,0,1,6.6,6.738l0,4.957A3.966,3.966,0,0,1,40.3,14.794a3.671,3.671,0,0,1-4.01,3.621,4.7,4.7,0,0,1-1.646,3.87,3.5,3.5,0,0,1,.958,1.492l4.263,1.816a1.979,1.979,0,0,1,1.084-.663,1.741,1.741,0,0,1,1.268.553c.17.155.795-.093.776-.318-.066-.784.322-1.52,1.109-1.526l2.05-.015c1.183-.009,1.063,1.474,1.3,1.8.441.6,1.491-1.31,2.739-.046l1.121,1.134a1.461,1.461,0,0,1-.133,2.033.587.587,0,0,0,.014.619c.354.281,1.8.116,1.8,1.3l0,2.06c0,.8-.761,1.184-1.531,1.1-.228-.024-.494.624-.312.792a1.4,1.4,0,0,1,.229,1.971l-1.36,1.362c-.93.932-1.856-.378-2.348-.3-.673.1.031,1.393-1.315,1.895l-.04,6.761a2.28,2.28,0,0,1-1.979,2.085l-29.739.02a2.206,2.206,0,0,1-2.415-2L12.179,43.2c0-.265.575-.537.811-.5a.95.95,0,0,1,.7.758l-.012,2.35a.842.842,0,0,0,.76.841l2.628.005V35.751a.873.873,0,0,1,.653-.789.84.84,0,0,1,.908.694ZM32,21.738a2.935,2.935,0,0,0,2.719-2.776l.017-9.142a1.109,1.109,0,0,0-1.055-1.054l-8.884,0A1.1,1.1,0,0,0,23.726,9.8l.013,9.08a2.917,2.917,0,0,0,2.71,2.862c1.851.085,3.584.088,5.548,0m-9.813-9.351a2.258,2.258,0,1,0,.014,4.491ZM36.309,16.9a2.221,2.221,0,0,0,2.461-2.344A2.154,2.154,0,0,0,36.3,12.408ZM28.763,27.437l-2.47-1.594a1.809,1.809,0,0,1-.676-1.141L25.6,23.16c-.5.034-1.242.5-1.244,1.055L24.339,30Zm.907,0,4.42,2.539.011-5.948a2.023,2.023,0,0,0-1.23-.917L32.755,25.1c-.021.362-.718.855-1.02,1.021Zm1.665-2.914-.046-1.208h-4.1L27.21,24.6l2.051,1.265ZM45.779,37.784c-.18-1.173.535-1.4,1.2-1.71.812-.377,1.588-.5,2.2.33l.879-.881c-.906-.686-.657-1.376-.353-2.171.313-.82.768-1.38,1.8-1.226l0-1.239c-1.071.145-1.511-.516-1.842-1.348a1.571,1.571,0,0,1,.394-2.114l-.892-.84c-.658.9-1.39.642-2.176.343-.808-.307-1.4-.8-1.231-1.794l-1.28.031c.223,1.094-.439,1.449-1.2,1.765-.774.323-1.542.518-2.173-.332l-.88.877c.859.572.681,1.33.391,2.078-.328.847-.76,1.463-1.814,1.355l.01,1.241c1.05-.21,1.44.438,1.76,1.184.353.822.5,1.624-.346,2.2l.884.856c.608-.854,1.4-.627,2.162-.331.834.322,1.416.758,1.22,1.822ZM31.116,31.07l.014-1.02-1.946-1.07-1.761,1.04a.97.97,0,0,0,.045,1.1L29.2,32.14ZM26.4,35.454l.579-2.865a1.766,1.766,0,0,1-1.3-1.55l-1.09.62Zm5.685-.056,1.792-3.732L32.737,31a1.594,1.594,0,0,1-1.265,1.591ZM30.95,37.829l-.884-4.352a1.623,1.623,0,0,1-1.658.012l-.858,4.464,1.689,3.487Zm13.827,8.085-.009-6.521a2.172,2.172,0,0,1-1.368-.338c-.57-.4-.216-1.81-.943-1.621a1.678,1.678,0,0,0-.5.269l-.546.477.01,8.476h2.652a.836.836,0,0,0,.706-.742" transform="translate(0 0.001)" fill="#19538d"/>
          <path id="Trazado_1275469" data-name="Trazado 1275469" d="M27.553,60.86l-1.491-1.485a1.031,1.031,0,0,1,.018-1.013.914.914,0,0,1,1.077-.1l.858.84,1.68-2.228a.9.9,0,0,1,.959-.306c.319.139.626.759.406,1.057l-2.216,3a.844.844,0,0,1-1.29.238" transform="translate(-21.996 -47.934)" fill="#19538d"/>
          <path id="Trazado_1275470" data-name="Trazado 1275470" d="M27.617,93.914l-1.529-1.529a1.017,1.017,0,0,1,0-1c.162-.2.812-.346,1.013-.158l.937.878,1.734-2.3a.912.912,0,0,1,1-.164.837.837,0,0,1,.23,1.1l-2.3,3.081a.893.893,0,0,1-1.1.1" transform="translate(-22.013 -75.944)" fill="#19538d"/>
          <path id="Trazado_1275471" data-name="Trazado 1275471" d="M27.586,192.519l-1.538-1.543a1,1,0,0,1,.062-.985.889.889,0,0,1,1-.095l.905.861,1.843-2.419c.166-.218.862-.153,1.039.021a.988.988,0,0,1,.085,1.06l-2.236,2.965a.774.774,0,0,1-1.16.135" transform="translate(-22.002 -159.605)" fill="#19538d"/>
          <path id="Trazado_1275472" data-name="Trazado 1275472" d="M27.6,126.789l-1.461-1.452a.827.827,0,0,1-.03-1.128.838.838,0,0,1,1.125.022l.745.76,1.811-2.4a.781.781,0,0,1,1.171,1.022l-2.3,3.079a.852.852,0,0,1-1.06.1" transform="translate(-21.965 -103.817)" fill="#19538d"/>
          <path id="Trazado_1275473" data-name="Trazado 1275473" d="M27.566,159.638l-1.607-1.6c-.2-.2-.069-.839.177-1.047a.878.878,0,0,1,.972.037l.836.822,1.733-2.307a.867.867,0,0,1,1.036-.165.826.826,0,0,1,.2,1.11l-2.226,2.98a.791.791,0,0,1-1.118.174" transform="translate(-21.932 -131.68)" fill="#19538d"/>
          <path id="Trazado_1275474" data-name="Trazado 1275474" d="M102.711,137.044l-4.811.04a.855.855,0,0,1-.778-.779.809.809,0,0,1,.724-.791l4.6-.007a1.043,1.043,0,0,1,.818.57c.116.253-.213.964-.548.967" transform="translate(-82.366 -114.919)" fill="#19538d"/>
          <path id="Trazado_1275475" data-name="Trazado 1275475" d="M71.226,137.045l-2.29-.011c-.286,0-.652-.606-.606-.878a.922.922,0,0,1,.829-.678l1.876.007a.866.866,0,0,1,.841.677c.05.291-.305.885-.65.884" transform="translate(-57.945 -114.894)" fill="#19538d"/>
          <path id="Trazado_1275476" data-name="Trazado 1275476" d="M177.765,114.968a1.021,1.021,0,0,1,.948-.18c.288.126.54.807.306,1.083a3.728,3.728,0,0,1-5.555.108.82.82,0,0,1,.1-1.077.872.872,0,0,1,1.072.042,2.183,2.183,0,0,0,3.126.024" transform="translate(-146.974 -97.305)" fill="#19538d"/>
          <path id="Trazado_1275477" data-name="Trazado 1275477" d="M181.581,83.346a.875.875,0,0,1,.238,1.047.805.805,0,0,1-1.125.216l-1.236-1.066a.875.875,0,0,1-.062-1.329l1.124-1.338A.881.881,0,0,1,181.6,80.7a.859.859,0,0,1,.249.984l-.851,1.069Z" transform="translate(-151.906 -68.348)" fill="#19538d"/>
          <path id="Trazado_1275478" data-name="Trazado 1275478" d="M167.814,78.6c0,.269-.652.541-.9.488a1.019,1.019,0,0,1-.643-.8L166.28,77a1.011,1.011,0,0,1,.649-.726c.345-.062.915.262.909.627Z" transform="translate(-141.01 -64.678)" fill="#19538d"/>
          <path id="Trazado_1275479" data-name="Trazado 1275479" d="M209.837,78.435c.008.263-.478.631-.725.645s-.785-.292-.786-.548l-.009-1.668c0-.23.432-.567.658-.6s.8.215.811.461Z" transform="translate(-176.667 -64.672)" fill="#19538d"/>
          <path id="Trazado_1275480" data-name="Trazado 1275480" d="M282.349,189.312a3.22,3.22,0,1,1-3.22-3.22,3.22,3.22,0,0,1,3.22,3.22m-1.557,0a1.667,1.667,0,1,0-1.667,1.667,1.667,1.667,0,0,0,1.667-1.667" transform="translate(-233.989 -157.818)" fill="#19538d"/>
        </g>
      </g>
    </g>
  </g>
</svg>
