<svg xmlns="http://www.w3.org/2000/svg" xmlns:xlink="http://www.w3.org/1999/xlink" width="96" height="96" viewBox="0 0 96 96">
  <defs>
    <clipPath id="clip-path">
      <rect id="Rectángulo_461217" data-name="Rectángulo 461217" width="54.028" height="54.059" fill="#19538d"/>
    </clipPath>
  </defs>
  <g id="Grupo_1212056" data-name="Grupo 1212056" transform="translate(-383.67 -8399.924)">
    <circle id="Elipse_13890" data-name="Elipse 13890" cx="48" cy="48" r="48" transform="translate(383.67 8399.924)" fill="#5a9ad7"/>
    <path id="Intersección_1" data-name="Intersección 1" d="M0,47.89A47.893,47.893,0,0,1,79.511,11.92L1.1,58.131A48,48,0,0,1,0,47.89Z" transform="translate(383.779 8400.031)" fill="#19538d"/>
    <path id="Trazado_1032916" data-name="Trazado 1032916" d="M40,0A40,40,0,1,1,0,40,40,40,0,0,1,40,0Z" transform="translate(391.67 8407.924)" fill="#e6f3ff"/>
    <g id="Grupo_1188343" data-name="Grupo 1188343" transform="translate(406.837 8422.38)">
      <rect id="Rectángulo_459838" data-name="Rectángulo 459838" width="52" height="52" transform="translate(-2.167 -1.457)" fill="none"/>
      <g id="Grupo_1212057" data-name="Grupo 1212057" transform="translate(-3.167 -2.456)">
        <path id="Trazado_1275504" data-name="Trazado 1275504" d="M1.737,1.736H38.327V52.312H1.737ZM0,54.059H40.065V0H0Z" fill="#19538d"/>
        <g id="Grupo_1211912" data-name="Grupo 1211912">
          <g id="Grupo_1211911" data-name="Grupo 1211911" clip-path="url(#clip-path)">
            <path id="Trazado_1275505" data-name="Trazado 1275505" d="M286.014,91.3v-7.14a1.918,1.918,0,0,0-.9-.345v25.067l-2.663,5.37a1.316,1.316,0,0,1-.658.529,1.089,1.089,0,0,1-.9-.435l-2.724-5.46,0-29.681a2.529,2.529,0,0,1,2.168-2.687,14.3,14.3,0,0,1,2.7,0,2.447,2.447,0,0,1,2.043,2.157l.052,3.223,2.031.683a1.523,1.523,0,0,1,.6.641l-.005,8.048ZM283.373,80.8l0-1.8a.831.831,0,0,0-.794-.784l-1.847-.008c-.319,0-.828.377-.829.721L279.9,80.8Zm0,1.747H279.9l0,25.253h3.476Zm-.514,27.013-2.415,0,1.215,2.331Z" transform="translate(-233.725 -64.242)" fill="#19538d"/>
            <path id="Trazado_1275506" data-name="Trazado 1275506" d="M79.322,47.019l-17.647,0a1.725,1.725,0,0,1-1.7-1.7l0-21.935a1.78,1.78,0,0,1,1.564-1.622l17.816-.011a1.775,1.775,0,0,1,1.514,1.581l0,22.018a1.674,1.674,0,0,1-1.558,1.677M73.172,39.6a4.327,4.327,0,0,1,2.489,3.857l.035,1.833,3.448-.033,0-21.772H61.715l0,21.789,3.458,0c-.111-2.625.246-4.5,2.569-5.684a3.416,3.416,0,0,1,.328-4.711,3.514,3.514,0,0,1,4.747.008,3.477,3.477,0,0,1,.353,4.707m-1-2.161a1.734,1.734,0,1,0-1.734,1.734,1.734,1.734,0,0,0,1.734-1.734m1.761,7.843-.019-1.843a2.533,2.533,0,0,0-2.366-2.491l-2.059-.025a2.568,2.568,0,0,0-2.524,2.51l-.029,1.848Z" transform="translate(-50.397 -18.27)" fill="#19538d"/>
            <rect id="Rectángulo_461214" data-name="Rectángulo 461214" width="19.171" height="1.771" transform="translate(14.791 33.12)" fill="#19538d"/>
            <rect id="Rectángulo_461215" data-name="Rectángulo 461215" width="19.175" height="1.742" transform="translate(14.787 40.065)" fill="#19538d"/>
            <rect id="Rectángulo_461216" data-name="Rectángulo 461216" width="19.171" height="1.766" transform="translate(14.791 47.058)" fill="#19538d"/>
            <path id="Trazado_1275507" data-name="Trazado 1275507" d="M42.548,288.844l-3.329.009a.984.984,0,0,1-.986-.929l-.008-3.4a.884.884,0,0,1,.849-.926l3.534,0a.913.913,0,0,1,.834.928l0,3.412a.979.979,0,0,1-.892.914m-.848-3.5H39.969v1.766H41.7Z" transform="translate(-32.118 -238.285)" fill="#19538d"/>
            <path id="Trazado_1275508" data-name="Trazado 1275508" d="M42.727,245.133l-3.653.008a.914.914,0,0,1-.825-.776l0-3.585a.942.942,0,0,1,.857-.868h3.506a.929.929,0,0,1,.849.868v3.586a.934.934,0,0,1-.73.767m-1.01-3.483H39.986v1.741h1.731Z" transform="translate(-32.135 -201.584)" fill="#19538d"/>
            <path id="Trazado_1275509" data-name="Trazado 1275509" d="M42.74,201.7l-3.68-.01a.917.917,0,0,1-.817-.843l.005-3.57a.821.821,0,0,1,.821-.786h3.567a.813.813,0,0,1,.815.785l.007,3.575a1.021,1.021,0,0,1-.718.85m-1.025-3.479H39.984v1.77h1.731Z" transform="translate(-32.133 -165.1)" fill="#19538d"/>
            <path id="Trazado_1275510" data-name="Trazado 1275510" d="M104.563,46.805l-1.883-1-1.813.965c-.393.21-1.222-.076-1.189-.594a23.046,23.046,0,0,1,.32-2.412l-1.536-1.6a1.119,1.119,0,0,1-.043-.917,1.207,1.207,0,0,1,.628-.418L101,40.514l.88-1.87a1.211,1.211,0,0,1,.738-.509,1.094,1.094,0,0,1,.853.519l.87,1.854,2.209.379c.218.038.5.547.471.762a1.838,1.838,0,0,1-.374.8l-1.292,1.32.32,2.115a1.211,1.211,0,0,1-.245.737,1.084,1.084,0,0,1-.871.183m-.935-2.509a1.667,1.667,0,0,1,.712-2,1.557,1.557,0,0,1-1.666-1.235,1.52,1.52,0,0,1-1.726,1.225,1.664,1.664,0,0,1,.749,2.055,1.479,1.479,0,0,1,1.931-.044" transform="translate(-82.631 -32.042)" fill="#19538d"/>
          </g>
        </g>
      </g>
    </g>
  </g>
</svg>
