<svg xmlns="http://www.w3.org/2000/svg" xmlns:xlink="http://www.w3.org/1999/xlink" width="96" height="96" viewBox="0 0 96 96">
  <defs>
    <clipPath id="clip-path">
      <rect id="Rectángulo_461213" data-name="Rectángulo 461213" width="47.188" height="54.426" fill="#19538d"/>
    </clipPath>
  </defs>
  <g id="Grupo_1212054" data-name="Grupo 1212054" transform="translate(-383.67 -8399.924)">
    <circle id="Elipse_13890" data-name="Elipse 13890" cx="48" cy="48" r="48" transform="translate(383.67 8399.924)" fill="#5a9ad7"/>
    <path id="Intersección_1" data-name="Intersección 1" d="M0,47.89A47.893,47.893,0,0,1,79.511,11.92L1.1,58.131A48,48,0,0,1,0,47.89Z" transform="translate(383.779 8400.031)" fill="#19538d"/>
    <path id="Trazado_1032916" data-name="Trazado 1032916" d="M40,0A40,40,0,1,1,0,40,40,40,0,0,1,40,0Z" transform="translate(391.67 8407.924)" fill="#e6f3ff"/>
    <g id="Grupo_1188343" data-name="Grupo 1188343" transform="translate(406.837 8422.38)">
      <rect id="Rectángulo_459838" data-name="Rectángulo 459838" width="52" height="52" transform="translate(-0.167 -0.456)" fill="none"/>
      <g id="Grupo_1212055" data-name="Grupo 1212055" transform="translate(1.833 -1.456)">
        <g id="Grupo_1211909" data-name="Grupo 1211909" clip-path="url(#clip-path)">
          <path id="Trazado_1275492" data-name="Trazado 1275492" d="M66.482,23.589l24.041-.012a2.664,2.664,0,0,1,2.57,2.775,4.755,4.755,0,0,1,3.591,3.571,2.688,2.688,0,0,0,2.734-2.36V6.854a2.683,2.683,0,0,0-2.76-2.364L84.44,4.5l1.183,1.236a1.024,1.024,0,0,1,.03,1.127.936.936,0,0,1-1.315.121L81.585,4.232a.988.988,0,0,1-.049-1.246L84.29.234A1,1,0,0,1,85.544.208a.96.96,0,0,1,.026,1.31L84.538,2.69,96.744,2.7a4.455,4.455,0,0,1,4.514,4.322l0,20.362a4.494,4.494,0,0,1-4.577,4.354,4.692,4.692,0,0,1-3.585,3.546,2.662,2.662,0,0,1-2.557,2.783l-23.687.012a2.734,2.734,0,0,1-2.786-2.7l.007-9.218a2.639,2.639,0,0,1,2.411-2.575M90.535,36.261a1.1,1.1,0,0,0,.78-1.037l0-8.884a.922.922,0,0,0-.936-.944l-23.67,0a.875.875,0,0,0-.8.927l0,9.057a.884.884,0,0,0,.844.879Zm2.563-2.89a2.693,2.693,0,0,0,1.823-2.591,2.659,2.659,0,0,0-1.814-2.51Z" transform="translate(-54.07 0)" fill="#19538d"/>
          <path id="Trazado_1275493" data-name="Trazado 1275493" d="M26.551,270.331l-23.9-.01A2.755,2.755,0,0,1,0,267.8l.014-9.344a2.678,2.678,0,0,1,2.472-2.628l24.006-.01a2.632,2.632,0,0,1,2.547,2.641l.012,9.055a2.739,2.739,0,0,1-2.5,2.821M26.4,268.5a.972.972,0,0,0,.85-.85v-9.161a.9.9,0,0,0-.917-.829H2.65a.85.85,0,0,0-.8.808v9.208a.939.939,0,0,0,.8.823Z" transform="translate(0 -215.905)" fill="#19538d"/>
          <path id="Trazado_1275494" data-name="Trazado 1275494" d="M26.311,60.786l-23.56-.009A2.7,2.7,0,0,1,.088,58.155L.076,48.961A2.769,2.769,0,0,1,2.9,46.217l23.585.009A2.658,2.658,0,0,1,29.1,48.786l-.019,9.549a2.69,2.69,0,0,1-2.767,2.45m.075-1.86a.918.918,0,0,0,.926-.785V48.96a.939.939,0,0,0-.786-.894H2.738a.855.855,0,0,0-.825.884v9.069a.875.875,0,0,0,.82.9Z" transform="translate(-0.064 -39.007)" fill="#19538d"/>
          <path id="Trazado_1275495" data-name="Trazado 1275495" d="M136.717,181.925h-13.41a.912.912,0,1,1-.129-1.817l13.526,0a.94.94,0,0,1,.99.808.923.923,0,0,1-.977,1.012" transform="translate(-103.2 -152.007)" fill="#19538d"/>
          <path id="Trazado_1275496" data-name="Trazado 1275496" d="M103.24,205.386l-9.383,0c-.4,0-.725-.555-.727-.874s.317-.879.726-.88l9.378,0a.877.877,0,0,1,.789.886c-.006.34-.352.876-.783.875" transform="translate(-78.601 -171.857)" fill="#19538d"/>
          <path id="Trazado_1275497" data-name="Trazado 1275497" d="M95.391,181.838a7.605,7.605,0,0,1-1.5.064c-.4-.018-.746-.606-.711-.97a1.019,1.019,0,0,1,.867-.826l.979-.007a1.119,1.119,0,0,1,.868.7c.086.288-.19,1-.5,1.038" transform="translate(-78.641 -152.002)" fill="#19538d"/>
          <path id="Trazado_1275498" data-name="Trazado 1275498" d="M72.7,286.719l-13.392,0a.991.991,0,0,1-1.02-.749c-.1-.335.2-1.044.724-1.044l13.853-.006a.9.9,0,1,1-.164,1.8" transform="translate(-49.176 -240.472)" fill="#19538d"/>
          <path id="Trazado_1275499" data-name="Trazado 1275499" d="M39.1,309.876l-9.052,0a.974.974,0,0,1-.889-.876c-.025-.321.347-.943.782-.944l9.149-.014a.944.944,0,0,1,.953.832.925.925,0,0,1-.944,1" transform="translate(-24.611 -259.983)" fill="#19538d"/>
          <path id="Trazado_1275500" data-name="Trazado 1275500" d="M31.443,284.921a.875.875,0,0,1,.377,1.221,1.759,1.759,0,0,1-2.51-.031.883.883,0,0,1,.321-1.169,2.862,2.862,0,0,1,1.812-.021" transform="translate(-24.652 -240.355)" fill="#19538d"/>
          <path id="Trazado_1275501" data-name="Trazado 1275501" d="M72.7,77.267l-13.733-.007c-.4,0-.708-.575-.714-.886s.317-.9.719-.9l13.73-.01a.889.889,0,0,1,.978.913.919.919,0,0,1-.98.887" transform="translate(-49.161 -63.693)" fill="#19538d"/>
          <path id="Trazado_1275502" data-name="Trazado 1275502" d="M39.327,100.664l-9.315.011a.973.973,0,0,1-.868-.8c-.059-.351.269-.968.739-.968l9.5,0c.336,0,.65.575.66.848s-.273.905-.716.906" transform="translate(-24.592 -83.476)" fill="#19538d"/>
          <path id="Trazado_1275503" data-name="Trazado 1275503" d="M31.385,77.3l-1.72,0a1.47,1.47,0,0,1-.546-.878,1.428,1.428,0,0,1,.548-.891l1.635-.01a1.849,1.849,0,0,1,.549.778,1.611,1.611,0,0,1-.465,1.006" transform="translate(-24.576 -63.737)" fill="#19538d"/>
        </g>
      </g>
    </g>
  </g>
</svg>
