<svg xmlns="http://www.w3.org/2000/svg" xmlns:xlink="http://www.w3.org/1999/xlink" width="96" height="96" viewBox="0 0 96 96">
  <defs>
    <clipPath id="clip-path">
      <rect id="Rectángulo_461225" data-name="Rectángulo 461225" width="56.011" height="56.706" fill="#19538d"/>
    </clipPath>
  </defs>
  <g id="Grupo_1212062" data-name="Grupo 1212062" transform="translate(-383.67 -8399.924)">
    <circle id="Elipse_13890" data-name="Elipse 13890" cx="48" cy="48" r="48" transform="translate(383.67 8399.924)" fill="#5a9ad7"/>
    <path id="Intersección_1" data-name="Intersección 1" d="M0,47.89A47.893,47.893,0,0,1,79.511,11.92L1.1,58.131A48,48,0,0,1,0,47.89Z" transform="translate(383.779 8400.031)" fill="#19538d"/>
    <path id="Trazado_1032916" data-name="Trazado 1032916" d="M40,0A40,40,0,1,1,0,40,40,40,0,0,1,40,0Z" transform="translate(391.67 8407.924)" fill="#e6f3ff"/>
    <g id="Grupo_1212063" data-name="Grupo 1212063" transform="translate(403.369 8418.586)">
      <g id="Grupo_1099618" data-name="Grupo 1099618" transform="translate(0.302 0.338)">
        <rect id="Rectángulo_401104" data-name="Rectángulo 401104" width="56.349" height="57.028" transform="translate(0)" fill="none"/>
      </g>
      <g id="Grupo_1211919" data-name="Grupo 1211919" transform="translate(0.639 0.642)">
        <g id="Grupo_1211918" data-name="Grupo 1211918" clip-path="url(#clip-path)">
          <path id="Trazado_1275529" data-name="Trazado 1275529" d="M52.363,56.588l-.1-7.721-17.571.091.137,7.612L33.52,56.55l-.111-8.587a2.685,2.685,0,0,1,1.37-.35l-.069-3.462a2.054,2.054,0,0,1,.653-1.24,8.459,8.459,0,0,1-1.132-2.895c-.736-.108-1.179.7-1.719.95L24.67,44.529a1.216,1.216,0,0,1-.995-.095,1.173,1.173,0,0,1-.281-1.011,3.483,3.483,0,0,0-5.152-4.44,3.377,3.377,0,0,0-1,4.347c.884,1.553,2.451,1.819,2.427,2.886a1.184,1.184,0,0,1-.62.818L9.964,51.1.369,29.684a2.957,2.957,0,0,1-.1-2.637,3.666,3.666,0,0,1,2.022-1.573l-.476-1.563L3.55,17.388a9.716,9.716,0,0,1,1.061-2.4,2.49,2.49,0,0,1-.477-1l-.1-3.664c-.5.142-1.357-.028-1.362-.4L2.548.018,3.866,0l.119,9.065,17.506-.158L21.4.02,22.723,0l.094,9.831c0,.365-.9.5-1.381.356l.036,3.473a1.851,1.851,0,0,1-.624,1.312l.921,1.8L31.038,12.9A4.795,4.795,0,1,1,37.89,7.1a12.8,12.8,0,0,1,.2,2.865l8.679-3.624L55.76,27.864a2.767,2.767,0,0,1-.1,2.5,3.121,3.121,0,0,1-1.942,1.382l.692,2.218-1.7,6.417a10.741,10.741,0,0,1-1.059,2.508,3.034,3.034,0,0,1,.42.985l.087,3.67c.5-.132,1.37.031,1.378.424l.16,8.6ZM46.724,28.046a4.651,4.651,0,0,1,.7-3.522A2.845,2.845,0,0,1,49.8,23.454a1.751,1.751,0,0,1,1.638,1.276l1.872,5.784c.711-.173,1.708-.951,1.384-1.728L46.057,8.063,37.8,11.509c-1.929-.131-.614-2.075-1.2-3.974A3.382,3.382,0,0,0,32.822,5.28a3.489,3.489,0,0,0-.4,6.8.994.994,0,0,1,.55.976,1.214,1.214,0,0,1-.655.764l-8.465,3.487,3.317,7.4a4.809,4.809,0,1,1,3.17,7.081l3.1,7.058L46.726,33.29l.763-.612ZM20.157,10.263,5.4,10.38l.029,3.632,14.756-.118ZM8.208,30.021l-.93-5.7A5.161,5.161,0,0,0,10,22.033l10.491-4.7a5.205,5.205,0,0,0-1.179-2.143l-13.286.1a6.6,6.6,0,0,0-.968,1.63L3.176,23.874l2.935,9.115a1.329,1.329,0,0,0,1.76-.574,3.938,3.938,0,0,0,.338-2.395m7.612,13.493a4.805,4.805,0,1,1,9.159-.579L31.541,40a.88.88,0,0,0,.432-1.345l-3.226-7.173c-.05-2.2,2.181-.522,4.266-1.539a3.287,3.287,0,0,0,1.549-4.137,3.35,3.35,0,0,0-3.726-2.137c-2.919.525-2.453,3-3.664,3.08a1.12,1.12,0,0,1-.827-.483l-3.724-8.45L10.879,23.068a6.115,6.115,0,0,1-2.155,2l.757,4.722A4.656,4.656,0,0,1,8.5,33.735c-.851.954-3.2.981-3.626-.309L2.7,26.77c-.925.192-1.728,1.053-1.346,1.909l9.254,20.7,7.42-3.323a7.829,7.829,0,0,1-2.207-2.538M35.472,39.4a5.6,5.6,0,0,0,1.547,3.385l13.033,0a6.739,6.739,0,0,0,1.185-2.076l1.813-6.72-2.93-9.07a1.246,1.246,0,0,0-1.625.372,3.2,3.2,0,0,0-.565,1.974l1,6.283a4.562,4.562,0,0,0-2.16,1.517l-1.229,2.07-1.1-.535.386-1.1Zm15.354,4.626-14.786.087.02,3.472L50.846,47.5Z" transform="translate(0)" fill="#19538d"/>
          <rect id="Rectángulo_461220" data-name="Rectángulo 461220" width="3.341" height="1.314" transform="translate(9.397 56.671) rotate(-88.469)" fill="#19538d"/>
          <rect id="Rectángulo_461221" data-name="Rectángulo 461221" width="1.365" height="3.34" transform="translate(41.246 2.43) rotate(-27.059)" fill="#19538d"/>
          <path id="Trazado_1275530" data-name="Trazado 1275530" d="M26.085,320.157l-1.161-.615,1.493-2.92,1.17.62Z" transform="translate(-20.874 -265.165)" fill="#19538d"/>
          <rect id="Rectángulo_461222" data-name="Rectángulo 461222" width="1.372" height="3.339" transform="matrix(0.893, -0.45, 0.45, 0.893, 13.495, 51.984)" fill="#19538d"/>
          <rect id="Rectángulo_461223" data-name="Rectángulo 461223" width="3.352" height="1.358" transform="translate(50.719 4.828) rotate(-62.803)" fill="#19538d"/>
          <rect id="Rectángulo_461224" data-name="Rectángulo 461224" width="3.303" height="1.316" transform="translate(46.607 3.429) rotate(-88.605)" fill="#19538d"/>
        </g>
      </g>
    </g>
  </g>
</svg>
