<svg xmlns="http://www.w3.org/2000/svg" xmlns:xlink="http://www.w3.org/1999/xlink" width="96" height="96" viewBox="0 0 96 96">
  <defs>
    <clipPath id="clip-path">
      <rect id="Rectángulo_461219" data-name="Rectángulo 461219" width="53.1" height="53.054" fill="#19538d"/>
    </clipPath>
  </defs>
  <g id="Grupo_1212060" data-name="Grupo 1212060" transform="translate(-383.67 -8399.924)">
    <circle id="Elipse_13890" data-name="Elipse 13890" cx="48" cy="48" r="48" transform="translate(383.67 8399.924)" fill="#5a9ad7"/>
    <path id="Intersección_1" data-name="Intersección 1" d="M0,47.89A47.893,47.893,0,0,1,79.511,11.92L1.1,58.131A48,48,0,0,1,0,47.89Z" transform="translate(383.779 8400.031)" fill="#19538d"/>
    <path id="Trazado_1032916" data-name="Trazado 1032916" d="M40,0A40,40,0,1,1,0,40,40,40,0,0,1,40,0Z" transform="translate(391.67 8407.924)" fill="#e6f3ff"/>
    <g id="Grupo_1188343" data-name="Grupo 1188343" transform="translate(406.837 8422.38)">
      <rect id="Rectángulo_459838" data-name="Rectángulo 459838" width="51" height="51" transform="translate(-1.167 1.544)" fill="none"/>
      <g id="Grupo_1212061" data-name="Grupo 1212061" transform="translate(-2.167 0.544)">
        <g id="Grupo_1211916" data-name="Grupo 1211916" clip-path="url(#clip-path)">
          <path id="Trazado_1275523" data-name="Trazado 1275523" d="M48.793,53.054,4.4,53.025A4.637,4.637,0,0,1,.025,48.665L0,4.745A4.69,4.69,0,0,1,4.593.016L48.2,0a4.738,4.738,0,0,1,4.9,4.757l-.013,43.73a4.789,4.789,0,0,1-4.294,4.568M50.807,7.506l.02-2.939c-.221-.982-.906-2.169-2.146-2.169l-44.1,0a2.323,2.323,0,0,0-2.261,2.2c-.054.983-.04,1.925-.029,2.915ZM48.276,50.849a2.506,2.506,0,0,0,2.575-2.323L50.858,9.8H2.347l.006,38.719a2.5,2.5,0,0,0,2.412,2.326Z" transform="translate(0 0)" fill="#19538d"/>
          <path id="Trazado_1275524" data-name="Trazado 1275524" d="M96.092,102.65A15.987,15.987,0,1,1,80.105,86.663,15.987,15.987,0,0,1,96.092,102.65m-2.3,0A13.685,13.685,0,1,0,80.1,116.335,13.685,13.685,0,0,0,93.789,102.65" transform="translate(-53.555 -72.386)" fill="#19538d"/>
          <path id="Trazado_1275525" data-name="Trazado 1275525" d="M200.558,24.933l-15.04.01a1.167,1.167,0,0,1-1.218-1.08,1.128,1.128,0,0,1,1.216-1.245l14.972,0a1.17,1.17,0,0,1,1.1,1.1,1.141,1.141,0,0,1-1.032,1.21" transform="translate(-153.934 -18.892)" fill="#19538d"/>
          <path id="Trazado_1275526" data-name="Trazado 1275526" d="M29.357,24.924l-5.823,0a1.155,1.155,0,0,1,.128-2.3l5.626.005A1.209,1.209,0,0,1,30.4,23.715a1.188,1.188,0,0,1-1.043,1.209" transform="translate(-18.792 -18.89)" fill="#19538d"/>
          <path id="Trazado_1275527" data-name="Trazado 1275527" d="M82.1,24.9l-4.683,0a1.192,1.192,0,0,1-1.035-1.215A1.144,1.144,0,0,1,77.57,22.6l4.306-.005a1.227,1.227,0,0,1,1.27.97A1.174,1.174,0,0,1,82.1,24.9" transform="translate(-63.795 -18.873)" fill="#19538d"/>
          <path id="Trazado_1275528" data-name="Trazado 1275528" d="M100.445,143.62a1.059,1.059,0,0,1-.043-1.477l2.9-2.883a1.153,1.153,0,0,1,1.626-.056l3.3,3.288,7.014-7.251a1.242,1.242,0,0,1,1.8-.244l2.983,2.951a1.058,1.058,0,0,1-.012,1.421l-11.044,11.152a1.19,1.19,0,0,1-1.663-.027Zm2.383-.866L108.1,148l9.334-9.334-1.17-1.188-7.449,7.47a1.247,1.247,0,0,1-1.433-.1l-3.328-3.325Z" transform="translate(-83.628 -112.506)" fill="#19538d"/>
        </g>
      </g>
    </g>
  </g>
</svg>
